<svg xmlns="http://www.w3.org/2000/svg" width="26" height="26" viewBox="0 0 26 26">
    <g fill="none" fill-rule="evenodd">
        <path fill="#FDB61B" d="M23.32 11.371c.93-.303 1.318-1.68.864-3.077-.454-1.396-1.577-2.283-2.508-1.98l1.644 5.057z" transform="translate(.59)"/>
        <path fill="#1D355B" d="M13.014 17.795c.108.239.196.486.264.739.455 1.607.072 1.663.674 2.047.602.385 2.162 1.45 2.575 2.146.414.696.365 1.743.24 1.784l-4.482 1.46-4.805-7.077c.93-.111 1.85-.284 2.758-.518.835-.204 1.758-.41 2.776-.581zM1.959 12.729c.034.794.185 1.578.447 2.328.23.76.569 1.481 1.007 2.142a2.373 2.373 0 11-1.454-4.47z" transform="translate(.59)"/>
        <path fill="#316094" fill-rule="nonzero" d="M18.794.741l5.287 16.241a.577.577 0 01-.67.745c-2.183-.462-7.43-1.488-9.693-1.18-5.829.8-8.614 3.177-10.237-1.842-1.638-5.01 2.01-4.728 7.19-7.514 2.024-1.081 5.652-4.998 7.142-6.657a.577.577 0 01.981.207z" transform="translate(.59)"/>
    </g>
</svg>
