<svg width="22" height="22" viewBox="0 0 22 22" fill="none" xmlns="http://www.w3.org/2000/svg">
<path d="M19.3 4.95999L14.99 20.37C14.77 21.14 13.96 21.61 13.18 21.39L3.76004 18.76C2.99004 18.54 2.52004 17.72 2.74004 16.95L7.05004 1.52999C7.27004 0.759995 8.09004 0.289995 8.86004 0.509995L18.28 3.14C19.06 3.36 19.52 4.17999 19.3 4.94999V4.95999Z" fill="#F3F7FF"/>
<path d="M19.26 5.06002L14.95 20.47C14.73 21.24 13.92 21.7 13.14 21.48L3.72003 18.85C2.95003 18.63 2.49003 17.82 2.71003 17.05L2.96003 16.15C3.62003 16.63 4.35003 17 5.15003 17.22C10.18 18.63 15.89 13.95 17.89 6.78002C18.21 5.63002 18.42 4.49002 18.52 3.36002C19.12 3.68002 19.44 4.39002 19.26 5.06002Z" fill="#D6E4FC"/>
<path d="M9.36006 12.54C9.70006 12.63 10.0601 12.58 10.3901 12.37L10.6801 12.17L10.8301 12.47C11.0001 12.82 11.3001 13.06 11.6201 13.15C11.9601 13.24 12.3401 13.2 12.6901 12.97C13.3301 12.52 13.5701 11.61 13.2301 10.91L11.9501 8.28001C11.8901 8.15001 11.7601 8.12001 11.6501 8.20001L9.16006 9.80001C8.50006 10.22 8.25006 11.15 8.58006 11.87C8.75006 12.22 9.03006 12.45 9.37006 12.55L9.36006 12.54Z" fill="#1A2228"/>
<path d="M10.91 11.32L10.97 12.74L11.03 14.15L10.19 13.92L9.35004 13.68L10.13 12.5L10.91 11.32Z" fill="#1A2228"/>
<path d="M7.62002 5.13002C7.73002 5.16002 7.85002 5.14002 7.96002 5.07002L8.06002 5.00002L8.11002 5.10002C8.17002 5.22002 8.27002 5.29002 8.37002 5.32002C8.48002 5.35002 8.61002 5.34002 8.72002 5.26002C8.93002 5.11002 9.01002 4.81002 8.90002 4.58002L8.47002 3.71002C8.47002 3.71002 8.41002 3.66002 8.37002 3.68002L7.54002 4.21002C7.32002 4.35002 7.24002 4.66002 7.35002 4.90002C7.41002 5.02002 7.50002 5.09002 7.61002 5.12002L7.62002 5.13002Z" fill="#1A2228"/>
<path d="M8.12999 4.73001L8.14998 5.19001L8.16999 5.66001L7.88999 5.59001L7.60999 5.51001L7.86999 5.12001L8.12999 4.73001Z" fill="#1A2228"/>
<path d="M8.92002 3.59999L8.89002 3.19999L8.28002 3.02999L8.06002 3.35999L7.71002 3.25999L8.92002 1.64999L9.06002 1.68999L9.27002 3.68999L8.92002 3.58999V3.59999ZM8.84002 2.21999L8.44002 2.81999L8.87002 2.93999L8.84002 2.21999Z" fill="#1A2228"/>
<path d="M14.44 16.84C14.33 16.81 14.21 16.83 14.1 16.9L14 16.97L13.95 16.87C13.89 16.75 13.79 16.68 13.69 16.65C13.58 16.62 13.45 16.63 13.34 16.71C13.13 16.86 13.05 17.16 13.16 17.39L13.59 18.26C13.59 18.26 13.65 18.31 13.69 18.29L14.52 17.76C14.74 17.62 14.82 17.31 14.71 17.07C14.65 16.95 14.56 16.88 14.45 16.85L14.44 16.84Z" fill="#1A2228"/>
<path d="M13.9201 17.25L13.9001 16.78L13.8901 16.31L14.1601 16.39L14.4401 16.46L14.1801 16.86L13.9201 17.25Z" fill="#1A2228"/>
<path d="M13.14 18.37L13.17 18.77L13.78 18.94L14 18.61L14.35 18.71L13.14 20.32L13 20.28L12.79 18.28L13.14 18.38V18.37ZM13.22 19.75L13.62 19.15L13.19 19.03L13.22 19.75Z" fill="#1A2228"/>
<path opacity="0.2" d="M16.46 3.43001C14.92 8.95001 9.66002 12.42 4.15002 11.89L7.01002 1.64001C7.23002 0.870011 8.05002 0.400011 8.82002 0.620011L16.61 2.80001C16.56 3.01001 16.51 3.22001 16.45 3.43001H16.46Z" fill="url(#paint0_linear_610_3609)"/>
<path d="M18.2455 3.25707L8.82666 0.623742C8.04478 0.405144 7.23374 0.861771 7.01514 1.64365L2.70974 17.0431C2.49114 17.825 2.94777 18.636 3.72964 18.8546L13.1485 21.488C13.9303 21.7066 14.7414 21.2499 14.96 20.4681L19.2654 5.06858C19.484 4.28671 19.0273 3.47566 18.2455 3.25707Z" stroke="#1E65C6" stroke-width="0.5" stroke-miterlimit="10"/>
<path d="M17.32 3V19C17.32 19.8 16.66 20.47 15.85 20.47H6.06998C5.26998 20.47 4.59998 19.8 4.59998 19V3C4.59998 2.2 5.26998 1.53 6.06998 1.53H15.85C16.66 1.53 17.32 2.2 17.32 3Z" fill="#F3F7FF"/>
<path d="M17.32 3.11001V19.11C17.32 19.91 16.66 20.57 15.85 20.57H6.05998C5.25998 20.57 4.59998 19.91 4.59998 19.11V18.18C5.35998 18.46 6.16998 18.62 6.99998 18.62C12.22 18.62 16.46 12.58 16.46 5.13001C16.46 3.93001 16.35 2.78001 16.15 1.67001C16.82 1.82001 17.32 2.42001 17.32 3.11001Z" fill="#D6E4FC"/>
<path d="M9.78995 12.98C10.14 12.98 10.48 12.83 10.73 12.54L10.95 12.27L11.17 12.52C11.43 12.81 11.78 12.96 12.11 12.96C12.46 12.96 12.81 12.81 13.09 12.5C13.59 11.9 13.57 10.96 13.05 10.37L11.11 8.18001C11.02 8.08001 10.89 8.08001 10.8 8.18001L8.83995 10.39C8.31995 10.97 8.31995 11.93 8.83995 12.54C9.09995 12.83 9.42995 12.98 9.77995 12.98H9.78995Z" fill="#1A2228"/>
<path d="M10.97 11.39L11.4 12.73L11.84 14.08H10.97H10.09L10.53 12.73L10.97 11.39Z" fill="#1A2228"/>
<path d="M6.11999 6.30999C6.23999 6.30999 6.34999 6.25999 6.42998 6.15999L6.49999 6.06999L6.56999 6.14999C6.65999 6.24999 6.76999 6.29999 6.87999 6.29999C6.99999 6.29999 7.10999 6.24999 7.20999 6.14999C7.37999 5.94999 7.36998 5.63999 7.19999 5.43999L6.54999 4.70999C6.54999 4.70999 6.47998 4.67999 6.44998 4.70999L5.79999 5.43999C5.62999 5.62999 5.62999 5.94999 5.79999 6.14999C5.88999 6.24999 5.99999 6.29999 6.10999 6.29999L6.11999 6.30999Z" fill="#1A2228"/>
<path d="M6.50997 5.78L6.65997 6.23L6.79997 6.68H6.50997H6.21997L6.36997 6.23L6.50997 5.78Z" fill="#1A2228"/>
<path d="M6.95995 4.49L6.82995 4.12H6.19995L6.06995 4.49H5.69995L6.43995 2.62H6.57995L7.31995 4.49H6.95995ZM6.50995 3.18L6.28995 3.86H6.73995L6.51995 3.18H6.50995Z" fill="#1A2228"/>
<path d="M15.85 15.75C15.73 15.75 15.62 15.8 15.54 15.9L15.47 15.99L15.4 15.91C15.31 15.81 15.2 15.76 15.09 15.76C14.97 15.76 14.86 15.81 14.76 15.91C14.59 16.11 14.6 16.42 14.77 16.62L15.42 17.35C15.42 17.35 15.49 17.38 15.52 17.35L16.17 16.62C16.34 16.43 16.34 16.11 16.17 15.91C16.08 15.81 15.97 15.76 15.86 15.76L15.85 15.75Z" fill="#1A2228"/>
<path d="M15.46 16.28L15.32 15.83L15.17 15.39H15.46H15.75L15.61 15.83L15.46 16.28Z" fill="#1A2228"/>
<path d="M15.01 17.57L15.14 17.95H15.77L15.9 17.57H16.27L15.53 19.44H15.39L14.65 17.57H15.01ZM15.46 18.88L15.68 18.2H15.24L15.46 18.88Z" fill="#1A2228"/>
<path opacity="0.2" d="M14.18 2.28998C14.18 8.01998 10.05 12.78 4.59998 13.75V3.10998C4.59998 2.30998 5.26998 1.63998 6.06998 1.63998H14.16C14.17 1.85998 14.18 2.06998 14.18 2.28998Z" fill="url(#paint1_linear_610_3609)"/>
<path d="M15.86 1.63998H6.07999C5.26813 1.63998 4.60999 2.29813 4.60999 3.10998V19.1C4.60999 19.9118 5.26813 20.57 6.07999 20.57H15.86C16.6718 20.57 17.33 19.9118 17.33 19.1V3.10998C17.33 2.29813 16.6718 1.63998 15.86 1.63998Z" stroke="#1E82FF" stroke-width="0.5"/>
<defs>
<linearGradient id="paint0_linear_610_3609" x1="9.28135" y1="4.60975" x2="12.183" y2="11.7238" gradientUnits="userSpaceOnUse">
<stop offset="0.53" stop-color="white"/>
<stop offset="1" stop-color="white" stop-opacity="0"/>
</linearGradient>
<linearGradient id="paint1_linear_610_3609" x1="7.57998" y1="5.36998" x2="12.29" y2="11.44" gradientUnits="userSpaceOnUse">
<stop offset="0.53" stop-color="white"/>
<stop offset="1" stop-color="white" stop-opacity="0"/>
</linearGradient>
</defs>
</svg>
