<svg width="22" height="22" viewBox="0 0 22 22" fill="none" xmlns="http://www.w3.org/2000/svg">
<g clip-path="url(#clip0_610_5491)">
<mask id="mask0_610_5491" style="mask-type:luminance" maskUnits="userSpaceOnUse" x="0" y="0" width="22" height="22">
<path d="M22 0H0V22H22V0Z" fill="white"/>
</mask>
<g mask="url(#mask0_610_5491)">
<path d="M10.5161 3.014C10.5161 3.256 10.5161 3.476 10.5161 3.718C10.5161 3.96 10.3621 4.158 10.1201 4.202C9.85605 4.246 9.57006 4.048 9.54806 3.762C9.52606 3.256 9.52606 2.772 9.54806 2.266C9.54806 2.046 9.74606 1.848 9.98806 1.826C10.2301 1.804 10.4501 1.958 10.4941 2.178C10.5161 2.222 10.5161 2.288 10.5161 2.332C10.5161 2.574 10.5161 2.794 10.5161 3.014Z" fill="#E84E4E"/>
<path d="M12.452 1.73802C12.452 1.98002 12.452 2.22202 12.452 2.44202C12.452 2.81602 12.034 3.03602 11.726 2.83802C11.572 2.75002 11.506 2.61802 11.484 2.42002C11.484 1.95802 11.484 1.47402 11.484 1.01202C11.484 0.748015 11.704 0.528015 11.968 0.528015C12.232 0.528015 12.452 0.726015 12.452 0.990015C12.452 0.990015 12.452 0.990015 12.452 1.01202C12.452 1.25402 12.452 1.49602 12.452 1.73802Z" fill="#E84E4E"/>
<path d="M13.904 3.608C14.168 3.608 14.388 3.828 14.388 4.092C14.388 4.356 14.168 4.576 13.904 4.554C13.64 4.554 13.42 4.334 13.42 4.07C13.42 3.806 13.64 3.608 13.904 3.608Z" fill="#E84E4E"/>
<path d="M10.032 0C10.296 0 10.516 0.22 10.516 0.484C10.516 0.748 10.296 0.968 10.032 0.946C9.76803 0.946 9.54803 0.726 9.54803 0.462C9.54803 0.198 9.76803 0 10.032 0Z" fill="#E84E4E"/>
<path d="M18.238 12.43C18.238 11.176 18.238 9.94401 18.238 8.69001C18.238 8.64601 18.238 8.62401 18.238 8.58001C18.238 8.55801 18.238 8.53601 18.216 8.49201C18.15 8.27201 17.952 8.14001 17.71 8.14001C17.49 8.16201 17.314 8.31601 17.27 8.53601C17.248 8.64601 17.27 8.73401 17.27 8.84401C17.27 9.17401 16.94 9.41601 16.632 9.28401C16.434 9.21801 16.324 9.04201 16.324 8.82201C16.324 8.42601 16.324 8.03001 16.324 7.61201C16.324 7.34801 16.126 7.15001 15.884 7.12801C15.642 7.10601 15.422 7.28201 15.356 7.52401C15.356 7.56801 15.356 7.61201 15.356 7.65601C15.334 7.96401 15.048 8.18401 14.74 8.09601C14.52 8.03001 14.388 7.85401 14.388 7.63401C14.388 6.99601 14.388 6.33601 14.388 5.69801C14.388 5.67601 14.388 5.63201 14.388 5.61001C14.366 5.30201 14.08 5.08201 13.772 5.17001C13.574 5.23601 13.42 5.41201 13.42 5.63201C13.42 5.87401 13.42 6.11601 13.42 6.35801C13.42 6.40201 13.42 6.44601 13.42 6.49001C13.376 6.71001 13.178 6.90801 12.936 6.90801C12.694 6.90801 12.496 6.73201 12.452 6.49001C12.43 6.38001 12.452 6.29201 12.452 6.18201C12.452 5.54401 12.452 4.88401 12.452 4.24601C12.452 3.89401 12.056 3.63001 11.726 3.82801C11.572 3.91601 11.484 4.07001 11.484 4.24601C11.484 4.84001 11.484 5.45601 11.484 6.05001C11.484 6.09401 11.484 6.11601 11.484 6.16001C11.462 6.44601 11.176 6.66601 10.912 6.60001C10.692 6.55601 10.538 6.35801 10.538 6.13801C10.538 5.89601 10.538 5.67601 10.538 5.43401C10.538 5.17001 10.318 4.95001 10.054 4.95001C9.79003 4.95001 9.59203 5.14801 9.57003 5.41201C9.57003 5.50001 9.57003 5.58801 9.57003 5.69801C9.57003 6.09401 9.57003 6.49001 9.57003 6.90801C9.57003 7.12801 9.43803 7.30401 9.26203 7.37001C9.08603 7.43601 8.86603 7.39201 8.73403 7.23801C8.64603 7.15001 8.60203 7.01801 8.60203 6.88601C8.60203 6.24801 8.60203 5.58801 8.60203 4.95001C8.60203 4.92801 8.60203 4.90601 8.60203 4.88401C8.60203 4.66401 8.47003 4.51001 8.27203 4.44401C8.09603 4.37801 7.87603 4.42201 7.74403 4.57601C7.65603 4.68601 7.61203 4.79601 7.61203 4.95001C7.61203 5.94001 7.61203 6.95201 7.61203 7.94201C7.61203 7.96401 7.61203 7.98601 7.61203 8.03001C7.61203 8.31601 7.30403 8.53601 7.04003 8.47001C6.82003 8.42601 6.66603 8.22801 6.66603 7.98601C6.66603 7.70001 6.66603 7.43601 6.66603 7.15001C6.66603 6.95201 6.57803 6.82001 6.40203 6.73201C6.22603 6.64401 6.07203 6.66601 5.89603 6.77601C5.76403 6.86401 5.69803 7.01801 5.69803 7.19401C5.69803 7.92001 5.69803 8.66801 5.69803 9.39401C5.69803 9.41601 5.69803 9.46001 5.69803 9.48201C5.67603 9.68001 5.58803 9.83401 5.39003 9.90001C5.19203 9.96601 5.01603 9.92201 4.88403 9.79001C4.79603 9.70201 4.75203 9.57001 4.75203 9.43801C4.75203 9.19601 4.75203 8.93201 4.75203 8.69001C4.75203 8.36001 4.42203 8.11801 4.11403 8.22801C3.93803 8.29401 3.82803 8.42601 3.80603 8.60201V8.64601C3.80603 8.66801 3.80603 8.69001 3.80603 8.73401C3.80603 8.80001 3.80603 8.86601 3.80603 8.91001V17.82C3.80603 17.82 3.80603 17.82 3.82803 17.82C6.16003 19.228 8.55803 20.592 10.934 21.978C10.978 22 11.022 22 11.044 21.978C11.044 21.978 11.066 21.978 11.066 21.956C12.914 20.878 14.762 19.822 16.61 18.744C17.138 18.436 17.688 18.128 18.216 17.82C18.216 16.082 18.216 14.322 18.216 12.584C18.216 12.562 18.216 12.54 18.216 12.518C18.238 12.474 18.238 12.452 18.238 12.43ZM14.41 13.662C14.41 14.542 14.41 15.4 14.41 16.28C14.41 16.368 14.41 16.368 14.322 16.368C13.618 16.368 12.936 16.368 12.232 16.368H12.21C12.144 16.368 12.144 16.368 12.144 16.302C12.144 15.774 12.144 15.246 12.144 14.718C12.144 14.63 12.144 14.63 12.056 14.63C11.352 14.63 10.648 14.63 9.92203 14.63H9.90003C9.85603 14.63 9.85603 14.63 9.85603 14.674C9.85603 14.696 9.85603 14.718 9.85603 14.74C9.85603 15.246 9.85603 15.774 9.85603 16.28C9.85603 16.302 9.85603 16.324 9.85603 16.346C9.85603 16.39 9.83403 16.39 9.81203 16.39C9.79003 16.39 9.79003 16.39 9.76803 16.39C9.06403 16.39 8.36003 16.39 7.65603 16.39H7.63403C7.59003 16.39 7.56803 16.39 7.59003 16.346C7.59003 16.324 7.59003 16.324 7.59003 16.302C7.59003 14.564 7.59003 12.804 7.59003 11.066C7.59003 10.978 7.59003 10.978 7.67803 10.978C8.38203 10.978 9.06403 10.978 9.76803 10.978C9.79003 10.978 9.79003 10.978 9.81203 10.978C9.83403 10.978 9.85603 10.978 9.85603 11.022C9.85603 11.044 9.85603 11.066 9.85603 11.088C9.85603 11.638 9.85603 12.166 9.85603 12.716C9.85603 12.738 9.85603 12.76 9.85603 12.782C9.85603 12.804 9.87803 12.826 9.90003 12.826C9.92203 12.826 9.92203 12.826 9.94403 12.826C10.648 12.826 11.352 12.826 12.034 12.826C12.056 12.826 12.056 12.826 12.078 12.826C12.1 12.826 12.122 12.826 12.122 12.782C12.122 12.76 12.122 12.738 12.122 12.716C12.122 12.166 12.122 11.616 12.122 11.088C12.122 11.066 12.122 11.044 12.122 11.022C12.122 11 12.122 10.978 12.166 10.978C12.188 10.978 12.21 10.978 12.232 10.978C12.936 10.978 13.64 10.978 14.322 10.978C14.41 10.978 14.41 10.978 14.41 11.066C14.41 11.902 14.41 12.782 14.41 13.662Z" fill="#E84E4E"/>
</g>
</g>
<defs>
<clipPath id="clip0_610_5491">
<rect width="22" height="22" fill="white"/>
</clipPath>
</defs>
</svg>
