<svg width="22" height="22" viewBox="0 0 22 22" fill="none" xmlns="http://www.w3.org/2000/svg">
<g clip-path="url(#clip0_610_3941)">
<path d="M16.7 9.1C16.7 12.99 13.55 16.15 9.66 16.15C6.63 16.15 4.05 14.24 3.06 11.54C2.77 10.78 2.62 9.96 2.62 9.1C2.62 5.22 5.76999 2.06 9.66 2.06C10.62 2.06 11.53 2.25 12.36 2.6C14.91 3.66 16.7 6.17 16.7 9.1Z" fill="#E84E4E"/>
<path opacity="0.1" d="M12.53 4.17C12.53 8.37 9.13 11.77 4.93 11.77C4.28 11.77 3.66 11.69 3.07 11.54C2.78 10.78 2.63 9.96 2.63 9.1C2.63 5.22 5.78 2.06 9.67 2.06C10.63 2.06 11.54 2.25 12.37 2.6C12.48 3.1 12.53 3.63 12.53 4.17Z" fill="url(#paint0_linear_610_3941)"/>
<path d="M9.77002 2.84C9.77002 2.84 9.71002 2.78 9.67002 2.78C9.63002 2.78 9.58002 2.8 9.57002 2.84L9.09002 3.77L8.02002 3.92C8.02002 3.92 7.94002 3.96 7.93002 4C7.92002 4.04 7.93002 4.08 7.96002 4.11L8.73002 4.83L8.55002 5.85C8.55002 5.85 8.56002 5.93 8.60002 5.96C8.63002 5.99 8.69002 5.99 8.73002 5.97L9.68002 5.49L10.63 5.97C10.63 5.97 10.66 5.98 10.69 5.98C10.72 5.98 10.74 5.98 10.76 5.96C10.79 5.93 10.82 5.89 10.81 5.85L10.63 4.83L11.4 4.11C11.4 4.11 11.45 4.03 11.43 4C11.42 3.96 11.38 3.93 11.34 3.92L10.27 3.77L9.79002 2.84H9.77002Z" fill="white"/>
<path d="M16.7 9.1C16.7 12.99 13.55 16.15 9.66 16.15C6.63 16.15 4.05 14.24 3.06 11.54C2.77 10.78 2.62 9.96 2.62 9.1C2.62 5.22 5.76999 2.06 9.66 2.06C10.62 2.06 11.53 2.25 12.36 2.6C14.91 3.66 16.7 6.17 16.7 9.1Z" stroke="#D33333" stroke-width="0.7" stroke-miterlimit="10"/>
<path d="M20.62 5.44H19.7V12.1H20.62V5.44Z" fill="#612121"/>
<path d="M20.62 10.5H18.75C18.48 10.5 18.27 10.72 18.27 11V14.27C18.27 14.55 18.49 14.77 18.75 14.77H20.62C20.89 14.77 21.1 14.55 21.1 14.27V11C21.1 10.72 20.89 10.5 20.62 10.5Z" fill="#612121"/>
<path d="M20.16 6.47001C21.1762 6.47001 22 5.64621 22 4.63001C22 3.6138 21.1762 2.79001 20.16 2.79001C19.1438 2.79001 18.32 3.6138 18.32 4.63001C18.32 5.64621 19.1438 6.47001 20.16 6.47001Z" fill="#E84E4E"/>
<g style="mix-blend-mode:multiply" opacity="0.4">
<path d="M22 4.63001C22 5.64001 21.19 6.47001 20.17 6.47001C19.34 6.47001 18.63 5.91001 18.42 5.14001C18.75 5.53001 19.25 5.78001 19.81 5.78001C20.82 5.78001 21.64 4.97001 21.64 3.95001C21.64 3.78001 21.62 3.61001 21.57 3.45001C21.84 3.77001 22 4.18001 22 4.62001V4.63001Z" fill="#E84E4E"/>
</g>
<path d="M18.42 8.06001C19.29 11.23 19.22 14.4 18.21 17.57C12.52 18.25 6.83001 18.25 1.13001 17.57C0.130011 14.4 0.0700111 11.23 0.940011 8.06001C1.05001 7.68001 1.46001 7.33001 1.83001 7.29001C7.06001 6.71001 12.3 6.71001 17.53 7.29001C17.91 7.33001 18.31 7.68001 18.42 8.06001Z" fill="#FDB61B"/>
<g style="mix-blend-mode:multiply" opacity="0.2">
<path d="M18.88 10.24C19.22 12.69 19 15.13 18.22 17.58C12.53 18.26 6.83999 18.26 1.13999 17.58C0.83999 16.65 0.62999 15.72 0.48999 14.79C0.90999 14.94 1.33999 15.07 1.77999 15.19C2.84999 15.49 3.94999 15.71 5.07999 15.8C5.43999 15.84 5.78999 15.87 6.14999 15.88C6.24999 15.88 6.34999 15.88 6.44999 15.88C6.75999 15.88 7.06999 15.88 7.36999 15.87C8.97999 15.79 10.53 15.44 12.01 14.91C12.33 14.79 12.65 14.67 12.96 14.53C13.47 14.32 13.95 14.09 14.42 13.82C14.88 13.58 15.32 13.33 15.75 13.05C16.23 12.75 16.68 12.42 17.09 12.08C17.31 11.91 17.52 11.72 17.72 11.54C18.16 11.13 18.55 10.7 18.86 10.26L18.88 10.24Z" fill="#FDB61B"/>
</g>
<path d="M5.95004 8.13C4.84004 8.17 3.72004 8.23 2.61004 8.32C2.29004 8.34 1.98004 8.60001 1.93004 8.89001C1.49004 11.28 1.49004 13.68 1.93004 16.07C1.98004 16.36 2.29004 16.61 2.61004 16.64C3.72004 16.72 4.84004 16.78 5.95004 16.83C6.27004 16.84 6.51004 16.6 6.49004 16.3C6.31004 13.76 6.31004 11.22 6.49004 8.68001C6.51004 8.37001 6.27004 8.13 5.95004 8.15V8.13Z" fill="white"/>
<path d="M3.74 15.1C3.50999 15.1 3.33 15.02 3.2 14.89C3.08 14.76 3 14.59 2.99 14.37C2.97 14.08 3.05 13.76 3.24 13.41C3.43 13.06 3.72999 12.63 4.11999 12.12C4.43999 11.72 4.68999 11.4 4.86999 11.17C4.98999 11.01 4.86999 10.81 4.65999 10.81C4.12999 10.81 3.60999 10.83 3.07999 10.84C2.91999 10.84 2.8 10.86 2.71 10.9C2.63 10.93 2.55 11.01 2.5 11.13C2.5 11.15 2.48 11.16 2.48 11.18C2.46 11.23 2.39999 11.26 2.33999 11.26C2.25999 11.26 2.19 11.2 2.21 11.13C2.26 10.82 2.32 10.5 2.38 10.19C2.41 10.07 2.54 9.97001 2.68 9.97001C3.65 9.93001 4.62999 9.9 5.59999 9.88C5.74999 9.88 5.87 9.98 5.86 10.12C5.86 10.22 5.84999 10.32 5.84999 10.43C5.84999 10.48 5.83 10.52 5.8 10.56C5.48 10.98 5.18 11.38 4.92 11.76C4.49 12.38 4.28999 12.99 4.30999 13.63C4.30999 13.77 4.33 13.93 4.36 14.1C4.38 14.24 4.38999 14.34 4.38999 14.38C4.39999 14.62 4.34999 14.8 4.23999 14.92C4.12999 15.04 3.96 15.1 3.74999 15.09L3.74 15.1Z" fill="#612121"/>
<path d="M11.35 8.07002C10.24 8.05002 9.11999 8.05002 8.00999 8.07002C7.68999 8.07002 7.41999 8.33002 7.39999 8.64002C7.26999 11.19 7.26999 13.75 7.39999 16.3C7.41999 16.61 7.68999 16.86 8.00999 16.87C9.11999 16.89 10.24 16.89 11.35 16.87C11.67 16.87 11.94 16.61 11.96 16.3C12.09 13.75 12.09 11.19 11.96 8.64002C11.94 8.33002 11.67 8.08002 11.35 8.07002Z" fill="white"/>
<path d="M9.32999 15.21C9.09999 15.21 8.92999 15.14 8.80999 15.01C8.69999 14.88 8.63999 14.7 8.63999 14.47C8.63999 14.17 8.72999 13.83 8.92999 13.46C9.12999 13.09 9.43999 12.64 9.82999 12.12C10.14 11.71 10.38 11.39 10.55 11.15C10.67 10.99 10.53 10.78 10.32 10.78C9.78999 10.78 9.26999 10.78 8.73999 10.78C8.57999 10.78 8.45999 10.8 8.37999 10.84C8.29999 10.87 8.22999 10.95 8.17999 11.08C8.17999 11.1 8.16999 11.11 8.15999 11.13C8.13999 11.18 8.08999 11.21 8.02999 11.21C7.94999 11.21 7.87999 11.15 7.88999 11.07C7.92999 10.74 7.95999 10.41 7.99999 10.08C8.01999 9.95001 8.13999 9.85001 8.27999 9.85001C9.24999 9.85001 10.23 9.85001 11.2 9.85001C11.35 9.85001 11.48 9.96001 11.48 10.1C11.48 10.2 11.48 10.31 11.48 10.41C11.48 10.46 11.47 10.5 11.44 10.54C11.14 10.96 10.86 11.36 10.61 11.75C10.2 12.38 9.98999 13.02 9.98999 13.67C9.98999 13.81 9.99999 13.98 10.02 14.16C10.02 14.31 10.03 14.4 10.03 14.45C10.03 14.7 9.95999 14.89 9.83999 15.02C9.71999 15.15 9.54999 15.21 9.32999 15.21Z" fill="#612121"/>
<path d="M16.75 8.32C15.64 8.24 14.52 8.18 13.41 8.13C13.09 8.12 12.85 8.36 12.87 8.66C13.05 11.2 13.05 13.74 12.87 16.28C12.85 16.59 13.09 16.83 13.41 16.81C14.52 16.77 15.64 16.71 16.75 16.62C17.07 16.6 17.38 16.34 17.43 16.05C17.87 13.66 17.87 11.26 17.43 8.87C17.38 8.58 17.07 8.33 16.75 8.3V8.32Z" fill="white"/>
<path d="M14.91 15.13C14.68 15.13 14.52 15.08 14.41 14.95C14.31 14.82 14.26 14.65 14.27 14.42C14.29 14.12 14.4 13.79 14.61 13.43C14.83 13.07 15.13 12.63 15.52 12.13C15.83 11.74 16.06 11.43 16.22 11.21C16.33 11.06 16.19 10.86 15.97 10.85C15.44 10.84 14.92 10.83 14.39 10.82C14.23 10.82 14.11 10.83 14.03 10.87C13.95 10.9 13.89 10.98 13.84 11.1C13.84 11.12 13.83 11.13 13.82 11.15C13.8 11.2 13.75 11.23 13.69 11.23C13.61 11.23 13.54 11.17 13.54 11.09C13.56 10.76 13.58 10.44 13.59 10.11C13.59 9.98001 13.71 9.89001 13.85 9.89001C14.82 9.91001 15.8 9.94001 16.77 9.98001C16.92 9.98001 17.06 10.1 17.07 10.22C17.08 10.32 17.09 10.41 17.1 10.51C17.1 10.55 17.1 10.6 17.07 10.63C16.8 11.02 16.54 11.4 16.29 11.77C15.89 12.36 15.68 12.98 15.65 13.61C15.65 13.75 15.65 13.9 15.65 14.08C15.65 14.22 15.65 14.32 15.65 14.36C15.63 14.6 15.55 14.78 15.42 14.91C15.29 15.04 15.11 15.1 14.89 15.11L14.91 15.13Z" fill="#612121"/>
<g style="mix-blend-mode:multiply" opacity="0.2">
<path d="M15.67 14.1C15.67 14.24 15.67 14.34 15.67 14.38C15.67 14.43 15.67 14.47 15.65 14.51C15.62 14.69 15.54 14.82 15.43 14.93C15.34 15.03 15.22 15.09 15.07 15.12C15.02 15.13 14.96 15.13 14.91 15.14C14.68 15.14 14.52 15.08 14.41 14.96C14.3 14.84 14.26 14.66 14.27 14.43C14.27 14.24 14.33 14.04 14.42 13.82C14.88 13.58 15.32 13.33 15.75 13.05C15.69 13.25 15.66 13.45 15.66 13.65C15.66 13.78 15.66 13.94 15.66 14.11L15.67 14.1Z" fill="#612121"/>
</g>
<path d="M5.95004 8.13C4.84004 8.17 3.72004 8.23 2.61004 8.32C2.29004 8.34 1.98004 8.60001 1.93004 8.89001C1.49004 11.28 1.49004 13.68 1.93004 16.07C1.98004 16.36 2.29004 16.61 2.61004 16.64C3.72004 16.72 4.84004 16.78 5.95004 16.83C6.27004 16.84 6.51004 16.6 6.49004 16.3C6.31004 13.76 6.31004 11.22 6.49004 8.68001C6.51004 8.37001 6.27004 8.13 5.95004 8.15V8.13Z" stroke="#FD7C1B" stroke-width="0.5" stroke-miterlimit="10"/>
<path d="M11.35 8.07002C10.24 8.05002 9.11999 8.05002 8.00999 8.07002C7.68999 8.07002 7.41999 8.33002 7.39999 8.64002C7.26999 11.19 7.26999 13.75 7.39999 16.3C7.41999 16.61 7.68999 16.86 8.00999 16.87C9.11999 16.89 10.24 16.89 11.35 16.87C11.67 16.87 11.94 16.61 11.96 16.3C12.09 13.75 12.09 11.19 11.96 8.64002C11.94 8.33002 11.67 8.08002 11.35 8.07002Z" stroke="#FD7C1B" stroke-width="0.5" stroke-miterlimit="10"/>
<path d="M16.75 8.32C15.64 8.24 14.52 8.18 13.41 8.13C13.09 8.12 12.85 8.36 12.87 8.66C13.05 11.2 13.05 13.74 12.87 16.28C12.85 16.59 13.09 16.83 13.41 16.81C14.52 16.77 15.64 16.71 16.75 16.62C17.07 16.6 17.38 16.34 17.43 16.05C17.87 13.66 17.87 11.26 17.43 8.87C17.38 8.58 17.07 8.33 16.75 8.3V8.32Z" stroke="#FD7C1B" stroke-width="0.5" stroke-miterlimit="10"/>
<path opacity="0.2" d="M12.18 6.90002C11.43 10.18 8.09999 12.64 4.40999 12.62C2.92999 12.62 1.52999 12.25 0.359985 11.66C0.419985 10.46 0.619985 9.26002 0.949985 8.07002C1.05999 7.69002 1.46999 7.34002 1.83999 7.30002C5.28999 6.92002 8.73999 6.79002 12.19 6.91002L12.18 6.90002Z" fill="url(#paint1_linear_610_3941)"/>
<path d="M18.22 17.57C12.53 18.25 6.84004 18.25 1.14004 17.57C0.130037 14.4 0.0700369 11.23 0.940037 8.06001C1.05004 7.68001 1.45004 7.34001 1.83004 7.29001C7.06004 6.71001 12.3 6.71001 17.53 7.29001C17.91 7.33001 18.32 7.68001 18.42 8.06001C19.29 11.23 19.23 14.4 18.22 17.57Z" stroke="#F38235" stroke-width="0.7"/>
<path d="M18.55 17.9V19.45C18.55 19.75 18.3 20.04 18.01 20.08C12.49 20.87 6.88 20.87 1.35 20.08C1.05 20.04 0.809998 19.75 0.809998 19.45V17.9C0.809998 17.9 0.809998 17.84 0.809998 17.8C0.859998 17.55 1.08 17.39 1.35 17.43C6.87 18.22 12.48 18.22 18.01 17.43C18.21 17.4 18.38 17.49 18.47 17.64C18.52 17.71 18.55 17.8 18.55 17.9Z" fill="#1E65C6"/>
<g style="mix-blend-mode:multiply" opacity="0.3">
<path d="M18.56 17.89V19.44C18.56 19.74 18.31 20.03 18.02 20.07C12.5 20.86 6.89001 20.86 1.36001 20.07C1.06001 20.03 0.820007 19.74 0.820007 19.44C0.820007 18.92 0.820007 18.41 0.820007 17.89C0.820007 17.85 0.820007 17.83 0.820007 17.79C0.840007 17.67 0.910007 17.57 1.00001 17.5C3.03001 18.87 6.16001 19.89 9.68001 19.89C13.19 19.89 16.31 18.88 18.34 17.5C18.39 17.53 18.43 17.58 18.47 17.63C18.52 17.7 18.55 17.79 18.55 17.89H18.56Z" fill="#1E65C6"/>
</g>
<path d="M18 20.07C12.48 20.86 6.87 20.86 1.35 20.07C1.05 20.03 0.809998 19.74 0.809998 19.44V17.89C0.809998 17.59 1.05 17.38 1.35 17.42C6.87 18.21 12.48 18.21 18 17.42C18.3 17.38 18.54 17.58 18.54 17.89V19.44C18.54 19.74 18.3 20.03 18 20.07Z" stroke="#1E478C" stroke-width="0.64" stroke-miterlimit="10"/>
</g>
<defs>
<linearGradient id="paint0_linear_610_3941" x1="6.69" y1="4.72" x2="9.74001" y2="11.73" gradientUnits="userSpaceOnUse">
<stop offset="0.53" stop-color="white"/>
<stop offset="1" stop-color="white" stop-opacity="0"/>
</linearGradient>
<linearGradient id="paint1_linear_610_3941" x1="5.40999" y1="7.32002" x2="7.87999" y2="12.99" gradientUnits="userSpaceOnUse">
<stop offset="0.53" stop-color="white"/>
<stop offset="1" stop-color="white" stop-opacity="0"/>
</linearGradient>
<clipPath id="clip0_610_3941">
<rect width="22" height="22" fill="white"/>
</clipPath>
</defs>
</svg>
