<svg width="22" height="22" viewBox="0 0 22 22" fill="none" xmlns="http://www.w3.org/2000/svg">
<g clip-path="url(#clip0_610_5361)">
<mask id="mask0_610_5361" style="mask-type:luminance" maskUnits="userSpaceOnUse" x="0" y="0" width="22" height="22">
<path d="M22 0H0V22H22V0Z" fill="white"/>
</mask>
<g mask="url(#mask0_610_5361)">
<path d="M10.34 11.77C10.846 11.506 10.846 10.78 10.34 10.516L2.068 6.05001C1.826 5.91801 1.54 5.89601 1.276 6.00601L0.528 6.29201C0.22 6.42401 0 6.73201 0 7.08401V15.246C0 15.598 0.22 15.906 0.528 16.016L1.276 16.302C1.54 16.412 1.826 16.39 2.068 16.258L10.34 11.77Z" fill="#FD991B"/>
<path d="M19.866 5.83001C18.436 4.40001 16.72 3.69601 14.696 3.69601C12.672 3.69601 10.956 4.40001 9.52601 5.83001C9.04201 6.31401 8.66801 6.82001 8.33801 7.37001L10.934 8.77801C11.11 8.47002 11.33 8.18401 11.594 7.92001C12.43 7.04001 13.464 6.60001 14.674 6.60001C15.884 6.60001 16.918 7.04001 17.776 7.89802C18.634 8.75601 19.074 9.79001 19.074 11C19.074 12.21 18.634 13.244 17.776 14.102C16.918 14.96 15.884 15.4 14.674 15.4C13.464 15.4 12.43 14.96 11.572 14.102C11.374 13.904 11.22 13.706 11.066 13.486L8.47001 14.894C8.75601 15.356 9.10801 15.774 9.50401 16.17C10.934 17.6 12.65 18.304 14.674 18.304C16.346 18.304 17.798 17.82 19.074 16.852V18.304H22V11C22 8.97601 21.296 7.26001 19.866 5.83001Z" fill="#1A2228"/>
</g>
</g>
<defs>
<clipPath id="clip0_610_5361">
<rect width="22" height="22" fill="white"/>
</clipPath>
</defs>
</svg>
