<svg width="22" height="22" viewBox="0 0 22 22" fill="none" xmlns="http://www.w3.org/2000/svg">
<path d="M19.15 15.6C18.53 19.06 15.03 21.57 11.55 21.57C7.20004 21.57 3.74004 19.09 2.85004 14.59C2.64004 13.58 2.61004 12.02 3.11004 10.4C3.50004 9.09999 4.23004 7.75999 5.47004 6.63999C5.68004 6.44999 6.02004 6.60999 5.99004 6.89999C5.89004 7.96999 5.82004 9.86999 6.45004 10.68C6.45004 10.68 6.15004 8.58999 8.82004 5.97999C9.90004 4.92999 10.15 3.49999 9.77004 2.41999C9.56004 1.80999 9.17004 1.30999 8.83004 0.95999C8.63004 0.75999 8.78004 0.40999 9.07004 0.42999C10.81 0.49999 13.63 0.98999 14.82 3.98999C15.35 5.30999 15.39 6.66999 15.14 8.05999C15.07 8.44999 14.92 9.06999 14.89 9.63999C14.84 10.36 14.99 11.02 15.7 11.15C16.62 11.32 17.06 10.59 17.26 10.07C17.34 9.84999 17.63 9.78999 17.79 9.96999C19.34 11.73 19.47 13.81 19.15 15.6Z" fill="#FD7C1B"/>
<g style="mix-blend-mode:multiply" opacity="0.3">
<path d="M19.1501 15.6C18.5301 19.06 15.0301 21.57 11.5501 21.57C7.20005 21.57 3.74005 19.09 2.85005 14.59C2.67005 13.7 2.63005 12.38 2.96005 10.97C3.98005 15.19 7.35005 17.51 11.5501 17.51C14.8201 17.51 18.1101 15.28 19.0101 12.14C19.3701 13.31 19.3401 14.51 19.1501 15.6Z" fill="#FD7C1B"/>
</g>
<path d="M13.14 11.73C11.54 9.66999 12.26 7.32 12.65 6.38C12.7 6.26 12.56 6.13999 12.45 6.21999C11.76 6.68999 10.35 7.79 9.69 9.34C8.8 11.44 8.86 12.47 9.39 13.72C9.71 14.48 9.34 14.64 9.15 14.66C8.97 14.69 8.8 14.57 8.67 14.44C8.29 14.07 8.02 13.61 7.89 13.1C7.86 12.99 7.72 12.96 7.65 13.05C7.16 13.73 6.9 14.83 6.89 15.6C6.85 17.99 8.83 19.93 11.22 19.93C14.23 19.93 16.43 16.6 14.69 13.81C14.19 13 13.72 12.47 13.13 11.72L13.14 11.73Z" fill="#FDB61B"/>
<g style="mix-blend-mode:multiply" opacity="0.3">
<path d="M11.22 19.94C8.83001 19.94 6.86001 18 6.90001 15.61C6.90001 15.41 6.92001 15.18 6.96001 14.94C7.28001 16.98 9.08001 18.53 11.22 18.53C13.24 18.53 14.89 17.04 15.24 15.21C15.7 17.6 13.74 19.94 11.22 19.94Z" fill="#FDB61B"/>
</g>
<path opacity="0.2" d="M15.14 8.05999C15.07 8.44999 14.92 9.06999 14.89 9.63999C13.61 11.7 11.33 13.07 8.73005 13.07C6.46005 13.07 4.44005 12.03 3.11005 10.4C3.50005 9.09999 4.23005 7.75999 5.47005 6.63999C5.68005 6.44999 6.02005 6.60999 5.99005 6.89999C5.89005 7.96999 5.82005 9.86999 6.45005 10.68C6.45005 10.68 6.15005 8.58999 8.82005 5.97999C9.90005 4.92999 10.15 3.49999 9.77005 2.41999C9.56005 1.80999 9.17005 1.30999 8.83005 0.95999C8.63005 0.75999 8.78005 0.40999 9.07005 0.42999C10.81 0.49999 13.63 0.98999 14.82 3.98999C15.35 5.30999 15.39 6.66999 15.14 8.05999Z" fill="url(#paint0_linear_610_3320)"/>
<path d="M5.99002 6.9C5.89002 7.97 5.82002 9.87 6.45002 10.67C6.45002 10.67 6.15002 8.59 8.82002 5.97C9.89002 4.92 10.14 3.49 9.77002 2.41C9.56002 1.8 9.17002 1.3 8.83002 0.950003C8.63002 0.740003 8.78002 0.400003 9.07002 0.420003C10.81 0.500003 13.62 0.980003 14.82 3.98C15.34 5.3 15.38 6.66 15.13 8.05C14.97 8.93 14.41 10.9 15.69 11.14C16.61 11.31 17.05 10.58 17.25 10.06C17.33 9.84 17.62 9.79 17.77 9.96C19.32 11.72 19.45 13.8 19.13 15.59C18.51 19.05 15.01 21.56 11.53 21.56C7.18002 21.56 3.73002 19.07 2.83002 14.57C2.47002 12.75 2.65002 9.16 5.45002 6.62C5.66002 6.43 6.00002 6.6 5.97002 6.88L5.99002 6.9Z" stroke="#E84E4E" stroke-width="0.67" stroke-linecap="round" stroke-linejoin="round"/>
<defs>
<linearGradient id="paint0_linear_610_3320" x1="7.09005" y1="3.18999" x2="11.05" y2="11.61" gradientUnits="userSpaceOnUse">
<stop offset="0.53" stop-color="white"/>
<stop offset="1" stop-color="white" stop-opacity="0"/>
</linearGradient>
</defs>
</svg>
