<svg xmlns="http://www.w3.org/2000/svg" width="26" height="26" viewBox="0 0 26 26">
    <path fill="#316094" fill-rule="nonzero" d="M19.339 19.9c-.41.449-.881.673-1.415.673h-1.598v-5.458h1.598c.534 0 1.005.231 1.415.69.409.462.614 1.13.614 2.008 0 .94-.205 1.636-.614 2.086zm-7.187 2.791c-1.17 1.014-2.86 1.52-5.072 1.52-1.044 0-1.966-.093-2.766-.279-.8-.19-1.475-.514-2.024-.977-.55-.46-.967-1.067-1.254-1.817-.288-.747-.431-1.673-.431-2.776v-.74H5.46v.504c0 .907.152 1.541.46 1.905.304.364.701.547 1.187.547.522 0 .92-.197 1.2-.592.279-.394.418-.875.418-1.447 0-.69-.193-1.235-.58-1.64a5.17 5.17 0 0 0-1.456-1.034 47 47 0 0 0-1.903-.87 8.113 8.113 0 0 1-1.902-1.154c-.585-.472-1.07-1.093-1.457-1.86-.387-.769-.58-1.772-.58-3.013 0-2.147.52-3.782 1.564-4.904C3.454 2.94 5.038 2.379 7.16 2.379c2.193 0 3.782.517 4.762 1.552.98 1.033 1.47 2.683 1.47 4.948H8.7v-.503c0-.629-.118-1.166-.35-1.608-.235-.444-.595-.666-1.081-.666-.54 0-.936.192-1.187.576a2.287 2.287 0 0 0-.378 1.285c0 .69.202 1.236.608 1.64.404.404.912.753 1.524 1.048.61.296 1.269.596 1.97.902a8.646 8.646 0 0 1 1.969 1.195c.612.494 1.12 1.138 1.524 1.937.406.797.609 1.835.609 3.116 0 2.244-.585 3.874-1.755 4.89zm4.174-16.673h1.308c.562 0 .988.244 1.28.732.29.487.435 1.063.435 1.727 0 .644-.144 1.204-.436 1.679-.291.476-.717.714-1.279.714h-1.308V6.018zm9.446 10.2a5.443 5.443 0 0 0-.717-1.632 4.35 4.35 0 0 0-1.253-1.243c-.508-.332-1.119-.532-1.831-.596v-.065c.61-.13 1.13-.356 1.557-.678a4.06 4.06 0 0 0 1.053-1.177c.274-.463.478-.979.61-1.548a7.79 7.79 0 0 0 .198-1.76c0-1.743-.483-3.136-1.45-4.18-.966-1.045-2.468-1.566-4.503-1.566H5.116C2.29 1.773 0 4.096 0 6.963v12.665c0 2.867 2.29 5.19 5.115 5.19h14.32c1.181 0 2.188-.165 3.023-.5.836-.334 1.512-.802 2.031-1.404.52-.602.9-1.323 1.145-2.162A9.782 9.782 0 0 0 26 18.009c0-.604-.075-1.201-.228-1.791z"/>
</svg>
