<?xml version="1.0" encoding="UTF-8"?>
<svg width="30px" height="31px" viewBox="0 0 30 31" version="1.1" xmlns="http://www.w3.org/2000/svg" xmlns:xlink="http://www.w3.org/1999/xlink">
    <!-- Generator: Sketch 59.1 (86144) - https://sketch.com -->
    <title>find</title>
    <desc>Created with Sketch.</desc>
    <g id="Header-Wireframe" stroke="none" stroke-width="1" fill-rule="evenodd">
        <path d="M29.9775281,27.4033708 L20.9651685,18.3921348 C24.470291,13.5562071 23.7196671,6.84725448 19.2324676,2.90553895 C14.7452682,-1.03617658 7.99552793,-0.915810412 3.65171972,3.18338594 C-0.692088498,7.28258228 -1.20303353,14.0140321 2.47228089,18.7219132 C6.1475953,23.4297943 12.8018367,24.5675784 17.8325843,21.3483146 L26.9337079,30.4494382 L29.9775281,27.4033708 Z M2.84719087,11.5865169 C2.84781154,6.75944623 6.76131878,2.84677737 11.5883894,2.84719104 C16.4154601,2.84760471 20.3282966,6.76094428 20.3280898,11.5880149 C20.327883,16.4150856 16.4147111,20.3280899 11.5876404,20.3280899 C9.26933444,20.3280899 7.04599663,19.4070695 5.4068121,17.7676743 C3.76762756,16.128279 2.84689299,13.9048228 2.84719087,11.5865169 L2.84719087,11.5865169 Z" id="find" ></path>
    </g>
</svg>