<svg width="22" height="22" viewBox="0 0 22 22" fill="none" xmlns="http://www.w3.org/2000/svg">
<g clip-path="url(#clip0_610_3372)">
<path d="M14.16 7.56C14.16 8.45 13.99 9.29 13.66 10.06C13.66 10.06 13.66 10.06 13.66 10.08C13.19 11.24 12.4 12.24 11.41 12.93C10.55 13.55 9.54002 13.97 8.44002 14.11H8.41002C8.13002 14.16 7.84002 14.18 7.53002 14.18C7.22002 14.18 6.95002 14.16 6.66002 14.11C6.01002 14.03 5.39002 13.86 4.82002 13.59L4.80002 13.57C3.82002 13.14 2.97002 12.46 2.31002 11.63V11.61C1.85002 11.04 1.50002 10.38 1.26002 9.67C1.15002 9.38 1.07002 9.08 1.02002 8.76C0.980024 8.59 0.960024 8.42 0.940024 8.24V8.22001C0.910024 7.98001 0.900024 7.76 0.900024 7.52C0.900024 6.65 1.06002 5.82 1.38002 5.07C1.38002 5.07 1.38002 5.07 1.38002 5.05C1.84002 3.89001 2.62002 2.89001 3.60002 2.17V2.15C4.45002 1.53 5.45002 1.12 6.54002 0.960005H6.56002C6.87002 0.910005 7.18002 0.880005 7.50002 0.880005C8.36002 0.880005 9.20002 1.05 9.95002 1.35C10.03 1.38 10.09 1.42 10.17 1.45C10.17 1.45 10.17 1.45 10.19 1.45C10.33 1.52 10.49 1.58 10.62 1.66C10.78 1.75 10.94 1.84 11.11 1.96C11.29 2.07 11.47 2.2 11.64 2.34C11.71 2.39 11.78 2.45 11.85 2.52C11.85 2.52 11.87 2.52 11.88 2.54C12.01 2.65 12.14 2.77001 12.25 2.89001C12.41 3.05001 12.56 3.22001 12.71 3.41001L12.73 3.43001C13.46 4.37001 13.96 5.52 14.09 6.77C14.09 6.8 14.09 6.82 14.09 6.85V6.88C14.12 7.09 14.13 7.32 14.13 7.53L14.16 7.56Z" fill="#1E82FF"/>
<path d="M6.95 2.26001C6.83 2.28001 6.71 2.29001 6.59 2.32001C6.41 2.35001 6.23 2.39001 6.05 2.44001C5.87 2.49001 5.7 2.55001 5.52 2.62001C5.41 2.67001 5.29 2.72001 5.18 2.77001C4.95 2.87001 4.73 3.01001 4.53 3.15001C4.43 3.22001 4.32 3.29001 4.22 3.37001L3.95 2.88001V2.86001L3.62 2.19001V2.17001C4.47 1.55001 5.47 1.14001 6.56 0.980011H6.58L6.79 1.70001L6.95 2.25001V2.26001Z" fill="#DEE6FC"/>
<path d="M2.2 8.32002L1.68 8.30002H1.64L0.920005 8.27002V8.25002C0.890005 8.01002 0.880005 7.79002 0.880005 7.55002C0.880005 6.68002 1.04 5.85002 1.36 5.10002C1.36 5.10002 1.36 5.10002 1.36 5.08002L2.05 5.26002H2.07L2.59 5.37002C2.19 6.27002 2.03 7.29002 2.18 8.30002L2.2 8.32002Z" fill="#E6EEFF"/>
<path d="M5.49001 12.54L5.28001 12.86L5.20001 12.98L5.18001 13.01L4.81001 13.6V13.58C3.83001 13.15 2.98001 12.47 2.32001 11.64V11.62L2.79001 11.11L2.84001 11.06L3.19001 10.7C3.78001 11.52 4.60001 12.15 5.51001 12.51L5.49001 12.54Z" fill="#E6EEFF"/>
<path d="M5.49999 12.52V12.54H5.48999L5.49999 12.52Z" fill="#DEE6FC"/>
<path d="M11.4 12.93C10.54 13.55 9.52997 13.97 8.42997 14.11H8.39997L8.18997 13.4L8.02997 12.86C8.52997 12.8 9.00997 12.68 9.49997 12.5C9.59997 12.46 9.67997 12.42 9.77997 12.38C9.85997 12.34 9.93997 12.3 10.02 12.26C10.19 12.17 10.34 12.08 10.5 11.97C10.6 11.9 10.7 11.83 10.8 11.76L11.07 12.26L11.4 12.94V12.93Z" fill="#E6EEFF"/>
<path d="M12.75 3.46L12.23 4L12.2 4.03L12.1 4.13L11.8 4.44C11.8 4.44 11.73 4.35 11.7 4.32C11.6 4.2 11.5 4.07 11.39 3.96C11.32 3.88 11.25 3.81 11.17 3.74C11.12 3.69 11.07 3.64 11.03 3.61C10.98 3.56 10.93 3.51 10.88 3.48C10.8 3.41 10.72 3.35 10.63 3.29C10.54 3.22 10.46 3.17 10.36 3.11C10.28 3.06 10.21 3.01 10.13 2.97C10.02 2.91 9.90997 2.86 9.80997 2.8C9.69997 2.75 9.57997 2.7 9.46997 2.66L9.77997 2.17L9.79997 2.13L10.2 1.5C10.2 1.5 10.2 1.5 10.22 1.5C11.21 1.94 12.07 2.62 12.74 3.46V3.48L12.75 3.46Z" fill="#E6EEFF"/>
<path d="M14.16 7.56C14.16 8.45 13.99 9.29 13.66 10.06C13.66 10.06 13.66 10.06 13.66 10.08L12.93 9.91H12.89L12.53 9.8L12.34 9.75C12.57 9.24 12.72 8.71 12.79 8.17C12.79 8.17 12.79 8.16333 12.79 8.15C12.84 7.71 12.83 7.26 12.76 6.81H12.95L13.31 6.83H13.37L14.12 6.88V6.91C14.15 7.12 14.16 7.35 14.16 7.56Z" fill="#E6EEFF"/>
<path d="M5.49999 12.52V12.54H5.48999L5.49999 12.52Z" fill="#DEE6FC"/>
<path d="M6.95 2.26001C6.83 2.28001 6.71 2.29001 6.59 2.32001C6.41 2.35001 6.23 2.39001 6.05 2.44001C5.87 2.49001 5.7 2.55001 5.52 2.62001C5.41 2.67001 5.29 2.72001 5.18 2.77001C4.95 2.87001 4.73 3.01001 4.53 3.15001C4.43 3.22001 4.32 3.29001 4.22 3.37001L3.95 2.88001V2.86001L3.62 2.19001V2.17001C4.47 1.55001 5.47 1.14001 6.56 0.980011H6.58L6.79 1.70001L6.95 2.25001V2.26001Z" fill="#E6EEFF"/>
<path d="M5.49999 12.52V12.54H5.48999L5.49999 12.52Z" fill="#E6EEFF"/>
<path d="M13.42 7.56C13.42 10.81 10.78 13.46 7.52 13.46C5.19 13.46 3.18 12.1 2.23 10.15C1.83 9.37 1.62 8.49 1.62 7.56C1.62 4.29 4.27 1.66 7.52 1.66C8.75 1.66 9.9 2.03 10.84 2.68C12.4 3.74 13.42 5.52 13.42 7.56Z" fill="#1E65C6"/>
<g opacity="0.25">
<g style="mix-blend-mode:multiply">
<path d="M13.42 7.56001C13.42 10.81 10.78 13.46 7.52001 13.46C5.27001 13.46 3.30001 12.19 2.32001 10.32C3.39001 11.77 5.11001 12.72 7.05001 12.72C10.3 12.72 12.95 10.08 12.95 6.82001C12.95 5.82001 12.7 4.87001 12.25 4.04001C12.98 5.02001 13.41 6.24001 13.41 7.56001H13.42Z" fill="#1E65C6"/>
</g>
</g>
<path d="M7.51999 11.59C9.74999 11.59 11.56 9.78001 11.56 7.55001C11.56 5.32001 9.74999 3.51001 7.51999 3.51001C5.28999 3.51001 3.48999 5.33001 3.48999 7.55001C3.48999 9.77001 5.29999 11.59 7.52999 11.59H7.51999Z" fill="#E6EEFF"/>
<path d="M7.52 14.52C11.3639 14.52 14.48 11.4039 14.48 7.56001C14.48 3.7161 11.3639 0.600006 7.52 0.600006C3.6761 0.600006 0.559998 3.7161 0.559998 7.56001C0.559998 11.4039 3.6761 14.52 7.52 14.52Z" stroke="#1E65C6" stroke-width="0.7" stroke-miterlimit="10"/>
<path d="M7.51998 11.6C9.74998 11.6 11.56 9.79002 11.56 7.56002C11.56 5.33002 9.74998 3.52002 7.51998 3.52002C5.28998 3.52002 3.47998 5.32002 3.47998 7.55002C3.47998 9.78002 5.28998 11.59 7.51998 11.59V11.6Z" stroke="#1E478C" stroke-width="0.5" stroke-miterlimit="10"/>
<path opacity="0.2" d="M10.02 2.24001C10.02 6.04001 6.94001 9.13001 3.14001 9.13001C2.40001 9.13001 1.67 9.02001 1 8.80001C0.960005 8.63001 0.940005 8.46001 0.920005 8.28001V8.26001C0.890005 8.02001 0.880005 7.80001 0.880005 7.56001C0.880005 6.69001 1.04 5.86001 1.36 5.11001C1.36 5.11001 1.36 5.11001 1.36 5.09001C1.82 3.93001 2.6 2.93001 3.58 2.21001V2.19001C4.43 1.57001 5.43 1.16001 6.52 1.00001H6.54C6.85 0.950013 7.16 0.920013 7.48 0.920013C8.34 0.920013 9.18001 1.09001 9.93001 1.39001C9.96 1.67001 9.98 1.95001 9.98 2.24001H10.02Z" fill="url(#paint0_linear_610_3372)"/>
<path d="M21.12 14.45C21.12 15.34 20.95 16.18 20.62 16.95C20.62 16.95 20.62 16.95 20.62 16.97C20.15 18.14 19.36 19.13 18.36 19.83C17.5 20.45 16.49 20.87 15.39 21.02H15.36C15.08 21.07 14.79 21.09 14.48 21.09C13.51 21.09 12.6 20.89 11.77 20.51L11.75 20.49C10.77 20.06 9.91004 19.38 9.26004 18.55V18.53C8.80004 17.96 8.45004 17.3 8.21004 16.59C8.10004 16.3 8.02004 16 7.97004 15.68C7.93004 15.51 7.91004 15.34 7.89004 15.16V15.14C7.86004 14.9 7.85004 14.68 7.85004 14.44C7.85004 13.57 8.01004 12.74 8.33004 11.98C8.33004 11.98 8.33004 11.98 8.33004 11.96C8.79004 10.79 9.57004 9.8 10.56 9.07V9.05C11.41 8.43 12.41 8.02 13.5 7.86H13.52C13.84 7.81 14.14 7.78 14.47 7.78C15.33 7.78 16.17 7.95 16.93 8.25C17.01 8.28 17.07 8.32 17.15 8.35C17.15 8.35 17.15 8.35 17.17 8.35C17.31 8.42 17.47 8.48 17.6 8.56C18.41 8.99 19.12 9.59 19.69 10.31L19.71 10.33C20.47 11.29 20.96 12.47 21.09 13.75V13.78C21.12 13.99 21.13 14.22 21.13 14.43L21.12 14.45Z" fill="#E84E4E"/>
<path d="M13.9 9.14002C13.78 9.16002 13.66 9.17002 13.54 9.20002C13.36 9.23002 13.18 9.27002 13 9.32002C12.82 9.37002 12.65 9.43002 12.46 9.50002C12.35 9.55002 12.23 9.60002 12.12 9.65002C11.89 9.76002 11.67 9.89002 11.47 10.03C11.36 10.1 11.26 10.17 11.16 10.25L10.89 9.76002V9.74002L10.56 9.07002V9.05002C11.41 8.43002 12.41 8.02002 13.5 7.86002H13.52L13.73 8.58002L13.89 9.13002L13.9 9.14002Z" fill="#DEE6FC"/>
<path d="M9.15001 15.21L8.62001 15.19H8.58001L7.86001 15.16V15.14C7.83001 14.9 7.82001 14.68 7.82001 14.44C7.82001 13.57 7.98001 12.74 8.30001 11.98C8.30001 11.98 8.30001 11.98 8.30001 11.96L8.99001 12.14H9.01001L9.54001 12.25C9.14001 13.15 8.98001 14.17 9.13001 15.18L9.15001 15.21Z" fill="#E6EEFF"/>
<path d="M12.44 19.43L12.23 19.76L12.15 19.88L12.13 19.91L11.76 20.5V20.48C10.78 20.05 9.92002 19.37 9.27002 18.54V18.52L9.74002 18.01L9.79002 17.96L10.14 17.6C10.73 18.42 11.55 19.05 12.46 19.42L12.44 19.43Z" fill="#E6EEFF"/>
<path d="M12.45 19.41V19.43H12.44L12.45 19.41Z" fill="#DEE6FC"/>
<path d="M18.36 19.83C17.5 20.45 16.49 20.87 15.39 21.02H15.36L15.15 20.31L14.99 19.77C15.49 19.71 15.97 19.59 16.46 19.41C16.56 19.37 16.64 19.33 16.74 19.29C16.82 19.25 16.9 19.21 16.98 19.17C17.15 19.08 17.31 18.99 17.46 18.88C17.57 18.81 17.66 18.74 17.76 18.67L18.03 19.17L18.36 19.85V19.83Z" fill="#E6EEFF"/>
<path d="M19.71 10.34L19.18 10.88L19.15 10.91L19.05 11.02L18.75 11.33C18.75 11.33 18.68 11.24 18.64 11.21C18.54 11.09 18.44 10.96 18.33 10.85C18.26 10.77 18.19 10.7 18.11 10.63C18.06 10.58 18.01 10.53 17.97 10.5C17.92 10.45 17.87 10.4 17.82 10.37C17.74 10.3 17.66 10.24 17.57 10.18C17.48 10.11 17.4 10.06 17.3 10C17.22 9.95001 17.15 9.90001 17.07 9.86001C16.96 9.80001 16.85 9.75001 16.74 9.69001C16.63 9.64001 16.51 9.59001 16.4 9.55001L16.71 9.06001L16.73 9.02001L17.13 8.39001C17.13 8.39001 17.13 8.39001 17.15 8.39001C18.14 8.83001 19 9.51001 19.67 10.35V10.37L19.71 10.34Z" fill="#E6EEFF"/>
<path d="M21.13 14.44C21.13 15.33 20.96 16.17 20.63 16.94C20.63 16.94 20.63 16.94 20.63 16.96L19.89 16.79H19.86L19.5 16.68L19.31 16.63C19.73 15.72 19.88 14.7 19.73 13.69L20.28 13.71H20.34L21.1 13.76V13.79C21.13 14 21.14 14.23 21.14 14.44H21.13Z" fill="#E6EEFF"/>
<path d="M12.45 19.41V19.43H12.44L12.45 19.41Z" fill="#DEE6FC"/>
<path d="M13.9 9.14002C13.78 9.16002 13.66 9.17002 13.54 9.20002C13.36 9.23002 13.18 9.27002 13 9.32002C12.82 9.37002 12.65 9.43002 12.46 9.50002C12.35 9.55002 12.23 9.60002 12.12 9.65002C11.89 9.76002 11.67 9.89002 11.47 10.03C11.36 10.1 11.26 10.17 11.16 10.25L10.89 9.76002V9.74002L10.56 9.07002V9.05002C11.41 8.43002 12.41 8.02002 13.5 7.86002H13.52L13.73 8.58002L13.89 9.13002L13.9 9.14002Z" fill="#E6EEFF"/>
<path d="M12.45 19.41V19.43H12.44L12.45 19.41Z" fill="#E6EEFF"/>
<path d="M20.38 14.44C20.38 17.7 17.73 20.35 14.47 20.35C12.14 20.35 10.12 18.99 9.17 17.03C8.77 16.25 8.56 15.37 8.56 14.44C8.56 11.17 11.21 8.53 14.47 8.53C15.7 8.53 16.85 8.9 17.8 9.55C19.36 10.61 20.38 12.4 20.38 14.43V14.44Z" fill="#FD991B"/>
<g style="mix-blend-mode:multiply" opacity="0.3">
<path d="M20.38 14.44C20.38 17.7 17.73 20.35 14.47 20.35C12.21 20.35 10.25 19.08 9.26001 17.21C10.33 18.66 12.05 19.61 14 19.61C17.26 19.61 19.91 16.96 19.91 13.7C19.91 12.7 19.66 11.75 19.21 10.92C19.95 11.9 20.38 13.13 20.38 14.45V14.44Z" fill="#FD991B"/>
</g>
<path d="M14.48 18.48C16.71 18.48 18.52 16.67 18.52 14.44C18.52 12.21 16.71 10.4 14.48 10.4C12.25 10.4 10.44 12.21 10.44 14.44C10.44 16.67 12.25 18.48 14.48 18.48Z" fill="#FFF5F5"/>
<path d="M14.5 18.48C16.73 18.48 18.54 16.67 18.54 14.44C18.54 12.21 16.73 10.4 14.5 10.4C12.27 10.4 10.46 12.21 10.46 14.44C10.46 16.67 12.27 18.48 14.5 18.48Z" stroke="#FD7C1B" stroke-width="0.5" stroke-miterlimit="10"/>
<path d="M14.48 21.4C18.3239 21.4 21.44 18.2839 21.44 14.44C21.44 10.5961 18.3239 7.48001 14.48 7.48001C10.6361 7.48001 7.52002 10.5961 7.52002 14.44C7.52002 18.2839 10.6361 21.4 14.48 21.4Z" stroke="#D33333" stroke-width="0.7" stroke-miterlimit="10"/>
<path opacity="0.2" d="M16.98 9.12001C16.98 12.92 13.89 16.02 10.09 16.02C9.34002 16.02 8.62002 15.91 7.95002 15.69C7.91002 15.52 7.89002 15.35 7.87002 15.17V15.15C7.84002 14.91 7.83002 14.69 7.83002 14.45C7.83002 13.58 7.99002 12.75 8.31002 11.99C8.31002 11.99 8.31002 11.99 8.31002 11.97C8.77002 10.8 9.55002 9.81001 10.54 9.08001V9.06001C11.39 8.44001 12.39 8.03001 13.48 7.87001H13.5C13.82 7.82001 14.12 7.79001 14.45 7.79001C15.31 7.79001 16.15 7.96001 16.91 8.26001C16.94 8.54001 16.96 8.82001 16.96 9.11001L16.98 9.12001Z" fill="url(#paint1_linear_610_3372)"/>
</g>
<defs>
<linearGradient id="paint0_linear_610_3372" x1="3.54001" y1="1.48001" x2="6.93001" y2="7.77001" gradientUnits="userSpaceOnUse">
<stop offset="0.53" stop-color="white"/>
<stop offset="1" stop-color="white" stop-opacity="0"/>
</linearGradient>
<linearGradient id="paint1_linear_610_3372" x1="10.49" y1="8.36001" x2="13.88" y2="14.66" gradientUnits="userSpaceOnUse">
<stop offset="0.53" stop-color="white"/>
<stop offset="1" stop-color="white" stop-opacity="0"/>
</linearGradient>
<clipPath id="clip0_610_3372">
<rect width="22" height="22" fill="white"/>
</clipPath>
</defs>
</svg>
