<svg width="22" height="22" viewBox="0 0 22 22" fill="none" xmlns="http://www.w3.org/2000/svg">
<g clip-path="url(#clip0_610_3925)">
<path d="M3.92999 2.84C3.92999 2.29 4.37999 1.84 4.92999 1.84H6.06999C6.61999 1.84 7.06999 2.29 7.06999 2.84V7.91C7.06999 8.46 6.61999 8.91 6.06999 8.91H4.92999C4.37999 8.91 3.92999 8.46 3.92999 7.91V2.84Z" fill="#E8AA46" stroke="#B48113" stroke-width="0.7" stroke-linecap="round" stroke-linejoin="round"/>
<path d="M18.86 9.57V19.17C18.86 19.38 18.78 19.56 18.65 19.69C18.52 19.83 18.34 19.91 18.14 19.91H3.85001C3.65001 19.91 3.47001 19.83 3.34001 19.69C3.22001 19.55 3.14001 19.37 3.14001 19.17V9.57L10.69 2.17C10.86 2.03 11.12 2.03 11.31 2.17L18.86 9.56V9.57Z" fill="#E8AA46"/>
<g style="mix-blend-mode:multiply" opacity="0.3">
<path d="M19.22 9.56999V19.16C19.22 19.37 19.14 19.55 19.01 19.69C18.87 19.83 18.7 19.91 18.5 19.91H9.07001C9.64001 19.68 10.18 19.42 10.71 19.13C14.37 17.14 17.21 13.85 18.63 9.87999C18.71 9.65999 18.79 9.43999 18.86 9.20999L19.22 9.56999Z" fill="#E8AA46"/>
</g>
<path d="M18.86 9.57V19.17C18.86 19.38 18.78 19.56 18.65 19.69C18.52 19.83 18.34 19.91 18.14 19.91H3.85001C3.65001 19.91 3.47001 19.83 3.34001 19.69C3.22001 19.55 3.14001 19.37 3.14001 19.17V9.57L10.69 2.17C10.86 2.03 11.12 2.03 11.31 2.17L18.86 9.56V9.57Z" stroke="#B48113" stroke-width="0.7" stroke-linecap="round" stroke-linejoin="round"/>
<path d="M0 20.7C0 19.83 0.7 19.13 1.57 19.13H20.43C21.3 19.13 22 19.83 22 20.7V21.49H0V20.7Z" fill="#0DB45C"/>
<path d="M20.02 10.04C20.23 10.25 20.24 10.6 20.01 10.83C19.79 11.05 19.43 11.05 19.21 10.83L11.19 2.83999L11.01 2.65999L10.83 2.83999L2.79001 10.85C2.57001 11.07 2.21001 11.07 1.99001 10.85C1.77001 10.64 1.77001 10.28 1.99001 10.05L10.54 1.54999L10.6 1.48999L10.62 1.46999C10.84 1.25999 11.19 1.25999 11.41 1.47999L20.01 10.05L20.02 10.04Z" fill="#612121" stroke="#612121" stroke-width="0.7"/>
<g style="mix-blend-mode:multiply" opacity="0.3">
<path d="M20 10.83C19.78 11.05 19.42 11.05 19.2 10.83L18.85 10.47L18.26 9.87998C18.34 9.65998 18.42 9.43998 18.49 9.20998C18.55 9.02998 18.6 8.84998 18.64 8.66998L20.01 10.04C20.23 10.25 20.23 10.6 20.01 10.83H20Z" fill="#612121"/>
<path d="M20 10.83C19.78 11.05 19.42 11.05 19.2 10.83L18.85 10.47L18.26 9.87998C18.34 9.65998 18.42 9.43998 18.49 9.20998C18.55 9.02998 18.6 8.84998 18.64 8.66998L20.01 10.04C20.23 10.25 20.23 10.6 20.01 10.83H20Z" stroke="#612121" stroke-width="0.7"/>
</g>
<g style="mix-blend-mode:multiply" opacity="0.3">
<path d="M22 20.7V21.49H0V21.05C0.72 21.15 1.45 21.2 2.19 21.2C4.5 21.2 6.7 20.74 8.71 19.91C9.28 19.68 9.82 19.42 10.35 19.13H20.43C21.3 19.13 22 19.83 22 20.7Z" fill="#0DB45C"/>
</g>
<path d="M10.04 12.37H7.83001C7.58001 12.37 7.39001 12.17 7.39001 11.93V9.72C7.39001 9.47 7.59001 9.28 7.83001 9.28H10.04C10.29 9.28 10.48 9.48 10.48 9.72V11.93C10.48 12.18 10.29 12.37 10.04 12.37Z" fill="#F1F2F2" stroke="#B48113" stroke-width="0.5" stroke-linecap="round" stroke-linejoin="round"/>
<path d="M14.17 12.37H11.96C11.71 12.37 11.52 12.17 11.52 11.93V9.72C11.52 9.47 11.72 9.28 11.96 9.28H14.17C14.42 9.28 14.61 9.48 14.61 9.72V11.93C14.61 12.18 14.42 12.37 14.17 12.37Z" fill="#F1F2F2" stroke="#B48113" stroke-width="0.5" stroke-linecap="round" stroke-linejoin="round"/>
<path d="M10.04 16.4H7.83001C7.58001 16.4 7.39001 16.2 7.39001 15.96V13.75C7.39001 13.5 7.59001 13.31 7.83001 13.31H10.04C10.29 13.31 10.48 13.51 10.48 13.75V15.96C10.48 16.21 10.29 16.4 10.04 16.4Z" fill="#F1F2F2" stroke="#B48113" stroke-width="0.5" stroke-linecap="round" stroke-linejoin="round"/>
<path d="M14.17 16.4H11.96C11.71 16.4 11.52 16.2 11.52 15.96V13.75C11.52 13.5 11.72 13.31 11.96 13.31H14.17C14.42 13.31 14.61 13.51 14.61 13.75V15.96C14.61 16.21 14.42 16.4 14.17 16.4Z" fill="#F1F2F2" stroke="#B48113" stroke-width="0.5" stroke-linecap="round" stroke-linejoin="round"/>
</g>
<defs>
<clipPath id="clip0_610_3925">
<rect width="22" height="22" fill="white"/>
</clipPath>
</defs>
</svg>
