<svg width="22" height="22" viewBox="0 0 22 22" fill="none" xmlns="http://www.w3.org/2000/svg">
<path d="M0.157476 7.65955C0.0255616 7.76168 -0.0127363 7.91487 0.0425828 8.07232C0.0681148 8.1404 1.4596 9.56168 3.20429 11.3064L6.31918 14.4255H6.4979C6.63833 14.4255 6.69365 14.4042 6.76173 14.3149C6.85109 14.2042 6.85109 14.1744 6.85109 10.9915V7.78295L6.74471 7.68083L6.64258 7.57444H3.45535C0.340455 7.57444 0.263859 7.57444 0.157476 7.65955Z" fill="#1A2228"/>
<path d="M7.71493 7.67658L7.59578 7.77871L7.58302 10.8808C7.5745 12.583 7.58302 14.0425 7.59578 14.1191C7.63408 14.3234 7.75323 14.4255 7.96174 14.4255C8.17876 14.4255 7.96599 14.6298 11.7064 10.8468C14.3064 8.21701 14.4256 8.08935 14.4256 7.94041C14.4256 7.82978 14.3958 7.75318 14.3192 7.68084L14.2171 7.57446H11.0256H7.83408L7.71493 7.67658Z" fill="#1A2228"/>
<path d="M15.2724 7.69785L15.149 7.82125V11.0213V14.217L15.2554 14.3191C15.332 14.3957 15.4043 14.4255 15.532 14.4255C15.7064 14.4255 15.7107 14.4213 18.8213 11.2936C20.5362 9.57444 21.9532 8.11912 21.9745 8.06806C22.0256 7.93615 21.9788 7.76593 21.8639 7.65955C21.7745 7.57444 21.7277 7.57444 18.583 7.57444H15.3958L15.2724 7.69785Z" fill="#1A2228"/>
</svg>
