<svg width="22" height="22" viewBox="0 0 22 22" fill="none" xmlns="http://www.w3.org/2000/svg">
<g clip-path="url(#clip0_610_5419)">
<mask id="mask0_610_5419" style="mask-type:luminance" maskUnits="userSpaceOnUse" x="0" y="0" width="22" height="22">
<path d="M22 0H0V22H22V0Z" fill="white"/>
</mask>
<g mask="url(#mask0_610_5419)">
<path d="M21.824 20.152C20.174 19.8 18.898 19.008 17.512 17.6C15.972 16.06 10.516 9.59201 10.516 9.59201L19.228 1.34201H14.52L6.578 9.10801C6.314 9.35001 6.072 9.61401 5.852 9.87801H5.808C5.808 9.61401 5.83 9.35001 5.83 9.08601V2.86001C5.83 2.00201 5.148 1.32001 4.29 1.32001H0.154C0.088 1.32001 0 1.38601 0 1.47401C0 1.54001 0.022 1.58401 0.088 1.62801C0.704 1.91401 1.21 2.24401 1.21 3.36601V20.35H5.83V11.572C5.83 11.352 5.83 11.176 5.808 10.912H5.852C6.072 11.242 6.314 11.528 6.578 11.836C6.578 11.836 11.44 17.534 11.946 18.084C13.992 20.24 16.874 20.988 21.802 20.526C22.066 20.504 22.066 20.218 21.824 20.174" fill="#E84E4E"/>
</g>
</g>
<defs>
<clipPath id="clip0_610_5419">
<rect width="22" height="22" fill="white"/>
</clipPath>
</defs>
</svg>
