<svg width="22" height="22" viewBox="0 0 22 22" fill="none" xmlns="http://www.w3.org/2000/svg">
<g clip-path="url(#clip0_610_5600)">
<mask id="mask0_610_5600" style="mask-type:luminance" maskUnits="userSpaceOnUse" x="0" y="0" width="22" height="22">
<path d="M22 0H0V22H22V0Z" fill="white"/>
</mask>
<g mask="url(#mask0_610_5600)">
<path d="M12.012 8.58C9.63604 8.734 10.692 11.836 13.332 11.66C15.906 11.506 14.542 8.404 12.012 8.58Z" fill="#FD7C1B"/>
<path d="M11 6.666C6.75402 6.666 3.32202 10.098 3.32202 14.344C3.32202 18.59 6.75402 22 11 22C15.246 22 18.678 18.568 18.678 14.322C18.678 10.098 15.246 6.666 11 6.666ZM11 21.186C7.21602 21.186 4.13602 18.106 4.13602 14.322C4.13602 10.538 7.21602 7.458 11 7.458C14.784 7.458 17.864 10.538 17.864 14.322C17.864 18.128 14.784 21.186 11 21.186ZM10.758 1.298C8.93202 2.684 9.26202 4.796 9.26202 4.796C9.26202 4.796 8.11802 1.826 6.62202 0C6.42402 2.332 7.15002 5.434 7.15002 5.434C7.15002 5.434 6.22602 3.52 3.96002 3.41C5.85202 4.488 6.57802 6.446 6.75402 6.974C7.87602 6.27 9.17402 5.896 10.494 5.852C10.34 5.368 9.81202 3.3 10.758 1.298Z" fill="#FD7C1B"/>
</g>
</g>
<defs>
<clipPath id="clip0_610_5600">
<rect width="22" height="22" fill="white"/>
</clipPath>
</defs>
</svg>
