<svg width="22" height="22" viewBox="0 0 22 22" fill="none" xmlns="http://www.w3.org/2000/svg">
<g clip-path="url(#clip0_610_3331)">
<path d="M20.53 9.12C20.29 8.77 20.04 8.43 19.93 8.1C19.81 7.76 19.81 7.33 19.8 6.87C19.8 6.19 19.79 5.47 19.37 4.92C19.14 4.6 18.83 4.39 18.47 4.23C18.35 4.17 18.22 4.12 18.08 4.07C17.94 4.01 17.79 3.97 17.64 3.92C17.23 3.76 16.81 3.62 16.51 3.4C16.24 3.19 15.99 2.86 15.71 2.5C15.3 1.94 14.87 1.37 14.2 1.16C13.57 0.939996 12.89 1.16 12.24 1.36C11.8 1.49 11.39 1.62 11 1.62C10.61 1.62 10.2 1.49 9.77001 1.36C9.11001 1.14 8.44001 0.939996 7.80001 1.14C7.13001 1.37 6.71001 1.94 6.29001 2.5C6.01001 2.86 5.79001 3.19 5.49001 3.4C5.20001 3.62 4.79001 3.76 4.36001 3.9C3.70001 4.13 3.03001 4.34 2.63001 4.92C2.21001 5.47 2.20001 6.19 2.20001 6.86C2.19001 7.32 2.19001 7.76 2.07001 8.1C1.97001 8.43 1.73001 8.75999 1.47001 9.12C1.06001 9.68999 0.640015 10.27 0.640015 11C0.640015 11.24 0.690015 11.47 0.770015 11.69C0.810015 11.82 0.870015 11.93 0.930015 12.05C1.08001 12.34 1.27001 12.62 1.47001 12.89C1.73001 13.24 1.97001 13.57 2.07001 13.9C2.19001 14.24 2.19001 14.67 2.20001 15.13C2.20001 15.82 2.21001 16.53 2.63001 17.09C3.03001 17.64 3.70001 17.87 4.36001 18.1C4.79001 18.24 5.20001 18.39 5.49001 18.6C5.57001 18.64 5.63001 18.72 5.70001 18.79L6.19001 19.36C6.19001 19.36 6.26002 19.44 6.30001 19.5C6.71001 20.06 7.13001 20.63 7.80001 20.86C8.00001 20.92 8.19001 20.93 8.37001 20.93C8.66002 20.93 8.91001 20.89 9.19001 20.82L10.19 20.53C10.47 20.44 10.76 20.39 11 20.39C11.24 20.39 11.49 20.44 11.74 20.52L12.76 20.8C13.23 20.93 13.73 21 14.2 20.86C14.87 20.63 15.31 20.06 15.71 19.5C15.74 19.47 15.76 19.43 15.79 19.4L16.27 18.83C16.34 18.74 16.44 18.66 16.51 18.6C16.81 18.39 17.23 18.24 17.64 18.1C18.3 17.87 18.97 17.66 19.37 17.1C19.79 16.53 19.8 15.82 19.8 15.14C19.81 14.69 19.81 14.24 19.93 13.9C20.04 13.57 20.29 13.24 20.53 12.89C20.94 12.32 21.36 11.73 21.36 11C21.36 10.27 20.94 9.68999 20.53 9.12Z" fill="#FDB61B"/>
<path d="M19.66 11C19.66 11 19.67 11.01 19.67 11.02C19.67 11.62 19.32 12.11 18.98 12.58C18.77 12.88 18.56 13.15 18.48 13.44C18.39 13.73 18.39 14.1 18.37 14.47C18.37 15.04 18.36 15.64 18.03 16.11C17.7 16.57 17.13 16.76 16.58 16.96C16.24 17.08 15.94 17.18 15.7 17.33C15.65 17.36 15.61 17.4 15.57 17.43C15.52 17.47 15.46 17.53 15.42 17.57L15.03 18.05C15.03 18.05 15.03 18.05 15.02 18.07C15.02 18.07 14.96 18.15 14.93 18.19C14.6 18.65 14.23 19.1 13.7 19.27C13.3 19.4 12.89 19.34 12.49 19.23L11.64 18.98C11.41 18.94 11.2 18.89 11 18.89C10.79 18.89 10.55 18.94 10.32 19L9.46999 19.25C9.23999 19.3 9.01999 19.34 8.77999 19.34C8.61999 19.34 8.47999 19.31 8.29999 19.27C7.73999 19.08 7.38999 18.61 7.03999 18.13C6.97999 18.05 6.92999 17.96 6.85999 17.89L6.56999 17.55C6.56999 17.55 6.53999 17.52 6.51999 17.5C6.47999 17.47 6.40999 17.4 6.35999 17.36C6.11999 17.19 5.77999 17.07 5.41999 16.95C4.87999 16.75 4.28999 16.55 3.96999 16.09C3.62999 15.63 3.59999 15.04 3.59999 14.45C3.58999 14.07 3.58999 13.72 3.48999 13.43C3.40999 13.15 3.20999 12.89 2.99999 12.57C2.65999 12.09 2.29999 11.6 2.29999 10.99C2.29999 10.38 2.63999 9.89001 2.99999 9.41001C3.20999 9.11001 3.40999 8.84001 3.48999 8.55001C3.57999 8.26001 3.57999 7.89001 3.59999 7.52001C3.59999 6.96001 3.60999 6.35001 3.96999 5.89001C4.28999 5.41001 4.86999 5.23001 5.41999 5.03001C5.75999 4.90001 6.11999 4.79001 6.35999 4.62001C6.59999 4.43001 6.80999 4.16001 7.03999 3.86001C7.37999 3.40001 7.73999 2.91001 8.29999 2.72001C8.82999 2.55001 9.40999 2.72001 9.93999 2.91001C10.32 3.02001 10.66 3.12001 10.97 3.12001C11.28 3.12001 11.65 3.03001 12 2.91001C12.54 2.74001 13.11 2.57001 13.64 2.74001C14.2 2.91001 14.55 3.40001 14.91 3.87001C15.14 4.16001 15.35 4.44001 15.57 4.63001C15.82 4.80001 16.15 4.92001 16.52 5.05001C17.06 5.24001 17.63 5.43001 17.97 5.90001C18.3 6.36001 18.31 6.96001 18.31 7.54001C18.32 7.92001 18.32 8.27001 18.42 8.56001C18.5 8.84001 18.71 9.12001 18.92 9.42001C19.25 9.89001 19.6 10.39 19.61 10.98C19.61 10.98 19.61 11 19.62 11H19.66Z" fill="#1E82FF"/>
<path d="M17.63 11C17.63 14.66 14.66 17.63 11 17.63C7.34 17.63 4.37 14.66 4.37 11C4.37 7.34 7.34 4.37 11 4.37C14.66 4.37 17.63 7.34 17.63 11Z" fill="white"/>
<path d="M11.29 6.36998C11.24 6.25998 11.13 6.19998 11 6.19998C10.87 6.19998 10.76 6.25998 10.71 6.36998L9.34999 9.01998L6.30999 9.43998C6.17999 9.45998 6.07999 9.54998 6.04999 9.65998C6.01999 9.76998 6.04999 9.88998 6.12999 9.98998L8.31999 12.05L7.79999 14.95C7.77999 15.07 7.82999 15.18 7.92999 15.26C8.02999 15.34 8.16999 15.34 8.28999 15.29L11 13.92L13.71 15.29C13.71 15.29 13.81 15.32 13.87 15.32C13.93 15.32 14.02 15.3 14.06 15.26C14.16 15.18 14.22 15.07 14.19 14.95L13.67 12.05L15.86 9.98998C15.96 9.90998 15.99 9.76998 15.94 9.65998C15.91 9.54998 15.79 9.45998 15.68 9.43998L12.64 9.01998L11.28 6.36998H11.29Z" fill="#FD991B"/>
<path opacity="0.2" d="M18.08 4.07C15.92 8.99 11 12.44 5.29001 12.44C3.71001 12.44 2.19001 12.18 0.770015 11.69C0.690015 11.47 0.640015 11.24 0.640015 11C0.640015 10.27 1.06001 9.68999 1.47001 9.12C1.73001 8.75999 1.97001 8.43 2.07001 8.1C2.19001 7.76 2.19001 7.32 2.20001 6.86C2.20001 6.19 2.21001 5.47 2.63001 4.92C3.03001 4.34 3.70001 4.13 4.36001 3.9C4.79001 3.76 5.20001 3.62 5.49001 3.4C5.79001 3.19 6.01001 2.86 6.29001 2.5C6.71001 1.94 7.13001 1.37 7.80001 1.14C8.44001 0.939996 9.11001 1.14 9.77001 1.36C10.2 1.49 10.61 1.62 11 1.62C11.39 1.62 11.8 1.49 12.24 1.36C12.89 1.16 13.57 0.939996 14.2 1.16C14.87 1.37 15.3 1.94 15.71 2.5C15.99 2.86 16.24 3.19 16.51 3.4C16.81 3.62 17.23 3.76 17.64 3.92C17.79 3.97 17.94 4.01 18.08 4.07Z" fill="url(#paint0_linear_610_3331)"/>
<g style="mix-blend-mode:multiply" opacity="0.5">
<path d="M21.36 11C21.36 11.73 20.95 12.32 20.53 12.89C20.29 13.24 20.04 13.57 19.93 13.9C19.82 14.24 19.82 14.69 19.8 15.14C19.8 15.82 19.8 16.53 19.37 17.1C18.97 17.66 18.3 17.87 17.64 18.1C17.23 18.24 16.82 18.39 16.52 18.6C16.44 18.66 16.34 18.74 16.27 18.83L15.79 19.4C15.79 19.4 15.74 19.47 15.72 19.5C15.32 20.06 14.87 20.63 14.2 20.86C13.73 21 13.23 20.93 12.76 20.8L11.74 20.52C11.49 20.44 11.24 20.39 11 20.39C10.76 20.39 10.47 20.44 10.19 20.53L9.19 20.82C8.92 20.89 8.66 20.93 8.37 20.93C8.19 20.93 8 20.92 7.8 20.86C7.13 20.63 6.72001 20.06 6.3 19.5C6.26 19.44 6.19 19.36 6.19 19.36L5.7 18.79C5.63 18.72 5.57 18.64 5.49 18.6C5.2 18.39 4.79 18.24 4.36 18.1C3.7 17.87 3.03 17.64 2.63 17.09C2.52 16.94 2.44 16.77 2.38 16.6C3.69 17.13 5.1 17.45 6.57 17.52C6.57 17.53 6.58 17.54 6.59 17.55L6.88 17.89C6.95001 17.96 7 18.05 7.06 18.13C7.4 18.61 7.76 19.09 8.32 19.27C8.49 19.31 8.64001 19.34 8.8 19.34C9.03 19.34 9.26 19.3 9.49 19.25L10.33 19C10.56 18.94 10.8 18.89 11.01 18.89C11.22 18.89 11.42 18.94 11.65 18.98L12.49 19.23C12.89 19.34 13.3 19.41 13.7 19.27C14.23 19.1 14.6 18.65 14.93 18.19C14.96 18.15 14.99 18.11 15.02 18.07H15.03L15.42 17.58C15.47 17.53 15.52 17.48 15.57 17.44C15.61 17.4 15.66 17.36 15.7 17.33C15.95 17.19 16.25 17.09 16.59 16.97C17.13 16.77 17.7 16.58 18.03 16.12C18.36 15.64 18.38 15.05 18.38 14.48C18.39 14.11 18.39 13.73 18.48 13.44C18.56 13.15 18.77 12.89 18.99 12.58C19.33 12.11 19.67 11.62 19.68 11.02C19.68 11.01 19.67 11 19.66 11C19.66 11 19.6567 10.9933 19.65 10.98C19.64 10.55 19.46 10.17 19.24 9.82001C19.51 9.24001 19.73 8.64001 19.91 8.01001C19.91 8.04001 19.91 8.07001 19.93 8.10001C20.04 8.43001 20.29 8.77001 20.53 9.12001C20.95 9.69001 21.36 10.27 21.36 11Z" fill="#FDB61B"/>
</g>
<path d="M17.39 12.79C16.62 15.59 14.05 17.64 11.01 17.64C10.41 17.64 9.82002 17.56 9.27002 17.4C12.53 16.9 15.39 15.21 17.39 12.79Z" fill="#E6EEFF"/>
<g style="mix-blend-mode:multiply" opacity="0.4">
<path d="M19.69 11.02C19.68 11.62 19.34 12.11 19 12.58C18.78 12.89 18.57 13.15 18.49 13.44C18.4 13.73 18.4 14.11 18.39 14.48C18.39 15.05 18.37 15.64 18.04 16.12C17.71 16.58 17.14 16.77 16.6 16.97C16.26 17.09 15.96 17.19 15.71 17.33C15.67 17.36 15.62 17.4 15.58 17.44C15.53 17.48 15.48 17.53 15.43 17.58L15.04 18.06H15.03C15 18.11 14.97 18.15 14.94 18.19C14.61 18.65 14.24 19.1 13.71 19.27C13.31 19.41 12.9 19.34 12.5 19.23L11.66 18.98C11.43 18.94 11.22 18.89 11.02 18.89C10.81 18.89 10.57 18.94 10.34 19L9.50002 19.25C9.27002 19.3 9.04002 19.34 8.81002 19.34C8.65002 19.34 8.50002 19.31 8.33002 19.27C7.77002 19.09 7.41002 18.61 7.07002 18.13C7.01002 18.05 6.96002 17.96 6.89002 17.89L6.60002 17.55C6.60002 17.55 6.58002 17.53 6.58002 17.52C6.81002 17.53 7.03002 17.54 7.26002 17.54C7.94002 17.54 8.61002 17.49 9.26002 17.39H9.27002C9.82002 17.55 10.41 17.63 11.01 17.63C14.05 17.63 16.62 15.58 17.39 12.78C18.14 11.88 18.77 10.89 19.25 9.82001C19.47 10.17 19.65 10.55 19.66 10.98C19.66 10.98 19.6634 10.9867 19.67 11C19.67 11 19.69 11.01 19.69 11.02Z" fill="#1E82FF"/>
</g>
<path d="M20.53 9.11999C20.29 8.77999 20.04 8.42999 19.93 8.10999C19.82 7.76999 19.82 7.33999 19.8 6.87999C19.8 6.18999 19.79 5.47999 19.37 4.91999C18.97 4.35999 18.3 4.12999 17.64 3.91999C17.23 3.75999 16.81 3.61999 16.51 3.40999C16.24 3.19999 15.98 2.86999 15.71 2.50999C15.3 1.94999 14.87 1.37999 14.2 1.16999C13.57 0.959986 12.89 1.16999 12.24 1.36999C11.8 1.49999 11.38 1.62999 11 1.62999C10.62 1.62999 10.2 1.49999 9.77001 1.36999C9.11001 1.15999 8.44001 0.959986 7.80001 1.15999C7.13001 1.38999 6.71001 1.95999 6.29001 2.51999C6.02001 2.87999 5.79001 3.20999 5.49001 3.41999C5.20001 3.62999 4.79001 3.77999 4.36001 3.91999C3.70001 4.14999 3.03001 4.35999 2.63001 4.92999C2.22001 5.48999 2.20001 6.19999 2.20001 6.86999C2.19001 7.32999 2.19001 7.76999 2.07001 8.10999C1.97001 8.43999 1.73001 8.76999 1.47001 9.11999C1.06001 9.68999 0.640015 10.28 0.640015 11.01C0.640015 11.74 1.05001 12.32 1.47001 12.9C1.73001 13.26 1.97001 13.59 2.07001 13.91C2.18001 14.25 2.18001 14.68 2.20001 15.14C2.20001 15.83 2.21001 16.54 2.63001 17.1C3.03001 17.66 3.70001 17.89 4.36001 18.11C4.79001 18.25 5.20001 18.4 5.49001 18.61C5.58001 18.65 5.63001 18.72 5.70001 18.8L6.18001 19.37C6.18001 19.37 6.25001 19.46 6.29001 19.51C6.70001 20.07 7.12001 20.64 7.79001 20.87C7.99001 20.93 8.18001 20.94 8.36001 20.94C8.65001 20.94 8.90001 20.9 9.17001 20.83L10.17 20.54C10.46 20.45 10.74 20.4 10.98 20.4C11.22 20.4 11.47 20.46 11.72 20.53L12.73 20.82C13.2 20.95 13.7 21.02 14.17 20.88C14.84 20.65 15.28 20.08 15.68 19.52C15.71 19.49 15.72 19.45 15.75 19.42L16.24 18.85C16.31 18.76 16.41 18.68 16.48 18.62C16.78 18.41 17.19 18.26 17.61 18.12C18.27 17.89 18.94 17.68 19.34 17.12C19.75 16.55 19.77 15.83 19.77 15.16C19.78 14.7 19.78 14.26 19.9 13.92C20.01 13.59 20.26 13.26 20.5 12.91C20.91 12.34 21.33 11.75 21.33 11.02C21.33 10.29 20.92 9.70999 20.5 9.12999L20.53 9.11999Z" stroke="#F38235" stroke-width="0.7" stroke-miterlimit="10"/>
</g>
<defs>
<linearGradient id="paint0_linear_610_3331" x1="7.65001" y1="4.44999" x2="11.8" y2="12.47" gradientUnits="userSpaceOnUse">
<stop offset="0.53" stop-color="white"/>
<stop offset="1" stop-color="white" stop-opacity="0"/>
</linearGradient>
<clipPath id="clip0_610_3331">
<rect width="22" height="22" fill="white"/>
</clipPath>
</defs>
</svg>
