<svg width="22" height="22" viewBox="0 0 22 22" fill="none" xmlns="http://www.w3.org/2000/svg">
<g clip-path="url(#clip0_610_5408)">
<mask id="mask0_610_5408" style="mask-type:luminance" maskUnits="userSpaceOnUse" x="0" y="0" width="22" height="22">
<path d="M22 0H0V22H22V0Z" fill="white"/>
</mask>
<g mask="url(#mask0_610_5408)">
<path d="M20.306 4.884L11.858 0V5.852C13.64 5.852 15.466 5.94 17.204 6.072H17.38V8.096H17.16C15.752 7.964 13.97 7.876 11.858 7.876C11.858 7.876 11.858 7.876 11.814 7.876H10.032C9.01996 7.876 8.00796 7.92 7.10596 7.964V10.384H10.032H10.252H11.814H14.366V12.034H11.814H10.252H10.032H7.12796V14.454C8.00796 14.498 8.99796 14.542 10.054 14.542C10.142 14.542 10.186 14.542 10.274 14.542C10.78 14.542 11.286 14.542 11.836 14.542C11.924 14.542 12.056 14.542 12.122 14.542C14.146 14.542 15.862 14.454 17.16 14.322H17.38V16.346H17.204C15.422 16.478 13.596 16.566 11.814 16.566V22L20.218 17.116C20.592 16.896 20.856 16.478 20.9 16.016V5.984C20.944 5.544 20.68 5.126 20.306 4.884Z" fill="#21135F"/>
<path d="M4.90598 6.028C6.64398 5.896 8.09598 5.808 10.12 5.764V0L1.73798 4.884C1.36398 5.104 1.09998 5.522 1.09998 5.984V16.038C1.09998 16.5 1.36398 16.918 1.73798 17.138L10.12 22V16.61C8.13998 16.522 6.68798 16.5 4.90598 16.368H4.72998V6.028H4.90598Z" fill="#9FADAC"/>
</g>
</g>
<defs>
<clipPath id="clip0_610_5408">
<rect width="22" height="22" fill="white"/>
</clipPath>
</defs>
</svg>
