<svg width="22" height="22" viewBox="0 0 22 22" fill="none" xmlns="http://www.w3.org/2000/svg">
<g clip-path="url(#clip0_610_5481)">
<mask id="mask0_610_5481" style="mask-type:luminance" maskUnits="userSpaceOnUse" x="0" y="0" width="22" height="22">
<path d="M22 0H0V22H22V0Z" fill="white"/>
</mask>
<g mask="url(#mask0_610_5481)">
<path d="M11 10.274C9.12999 10.274 7.61199 8.756 7.61199 6.886C7.61199 5.016 9.12999 3.498 11 3.498C12.87 3.498 14.388 5.016 14.388 6.886C14.388 8.756 12.87 10.274 11 10.274ZM17.886 0H14.41V0.902C13.398 0.33 12.254 0.022 11.022 0.022C7.23799 0.022 4.13599 3.124 4.13599 6.908C4.13599 10.692 7.21599 13.772 11.022 13.772C14.828 13.772 17.908 10.67 17.908 6.886C17.908 6.864 17.908 6.864 17.908 6.842V0H17.886Z" fill="#0DB45C"/>
<path d="M7.59001 22H4.11401C4.11401 18.238 7.19401 15.158 10.956 15.158H17.908V18.656H10.956C9.08601 18.634 7.59001 20.152 7.59001 22Z" fill="#0DB45C"/>
</g>
</g>
<defs>
<clipPath id="clip0_610_5481">
<rect width="22" height="22" fill="white"/>
</clipPath>
</defs>
</svg>
