<svg width="22" height="22" viewBox="0 0 22 22" fill="none" xmlns="http://www.w3.org/2000/svg">
<path d="M15.1937 7.83751C15.18 8.14001 15.2075 8.47001 14.7537 8.62126C14.4925 8.71751 14.135 8.33251 14.1212 8.07126C14.2587 7.87876 14.4512 7.74126 14.6575 7.67251C15.0975 7.49376 15.1937 7.48001 15.1937 7.85126V7.83751ZM7.25997 8.60751C6.80622 8.45626 6.81997 8.12626 6.81997 7.82376C6.81997 7.46626 6.92997 7.49376 7.35622 7.64501C7.56247 7.72751 7.75497 7.85126 7.89247 8.04376C7.85122 8.30501 7.53497 8.69001 7.25997 8.59376V8.60751ZM17.7375 17.2975C18.0262 17.16 18.2737 16.9675 18.5075 16.7613C19.58 15.62 19.7862 14.2725 19.9237 12.7463C19.965 12.3475 19.9375 11.9488 19.965 11.5225C19.965 11.4675 19.9787 11.1788 20.0062 11.1788C20.0887 11.275 20.1575 11.385 20.1987 11.5088C20.3362 11.8663 20.405 12.2375 20.4462 12.6225C20.5562 13.365 20.5975 14.135 20.5012 14.8775C20.46 15.1388 20.3912 15.4 20.2537 15.62C19.6075 16.7475 18.8512 17.8063 18.1362 18.9063C18.0812 19.0025 18.04 18.8238 17.9987 18.7963L17.9437 18.7413C17.7925 18.645 17.71 18.645 17.6412 18.7C17.6275 18.7413 17.6 18.7963 17.5587 18.8375C17.38 19.195 17.105 19.8 16.885 20.1713C16.8437 20.2263 16.775 20.2538 16.7062 20.2125C16.665 20.1988 16.6512 20.1575 16.6512 20.1025V18.8238C16.6512 18.5625 16.6512 18.2325 16.2937 18.2325C15.9362 18.2325 15.9362 18.535 15.9087 18.8238V19.6075C15.9087 19.69 15.8537 19.745 15.7987 19.745C15.785 19.745 15.7575 19.745 15.7162 19.7313C15.4137 19.4975 15.0837 19.3325 14.7262 19.195C14.1487 18.9613 13.5025 19.0438 13.0075 19.3875L13.09 19.305C13.53 18.9063 14.1212 18.755 14.6987 18.8788C14.85 18.92 15.0287 18.92 15.18 18.92C15.2625 18.92 15.29 18.865 15.29 18.7825V18.7413C15.0562 18.15 14.3687 15.9913 15.8125 15.2625C15.8537 15.2488 15.8675 15.2075 15.895 15.1663C15.95 14.7675 16.665 13.0625 14.7125 11.935C14.41 12.1963 14.025 12.8563 13.5437 13.255C14.41 13.4475 14.85 12.925 15.2625 12.5675C15.0837 13.5575 14.3 13.64 13.695 13.9975C14.2312 13.7638 14.7675 14.08 15.4 13.75C14.9462 14.63 14.0387 14.19 13.4612 14.6438C13.9975 14.9875 14.4925 14.795 14.9737 14.74C15.1112 14.7263 15.2625 14.7263 15.4 14.7538C15.29 14.9325 15.1525 15.0838 15.0012 15.2075C14.8087 15.345 14.6025 15.455 14.3687 15.51C14.135 15.5925 13.8875 15.5925 13.64 15.5238C12.9387 15.3175 12.2375 15.0425 11.5775 14.7813C11.44 14.7263 11.3437 14.6025 11.3162 14.4513C11.275 14.2175 11.3162 13.9975 11.3025 13.7638C11.2475 13.475 11.44 13.1863 11.7287 13.1313C12.375 12.9525 12.9387 12.5538 13.3375 12.0175C13.475 11.825 13.5712 11.6188 13.6262 11.385C13.6262 11.1513 13.585 10.945 13.5162 10.7525C13.475 10.6013 13.475 10.4225 13.53 10.2713V10.2163H13.5437L13.6812 9.62501C13.7225 9.43251 13.8325 9.28126 13.9837 9.17126H14.025C14.025 9.17126 14.0662 9.13001 14.08 9.11626C14.3412 8.97877 14.6162 8.86876 14.905 8.77251C15.895 8.37376 16.665 7.54876 16.995 6.53126C17.105 6.18751 17.1462 5.83001 17.0775 5.47251C16.9812 5.66501 16.83 6.05001 16.7475 6.25626C16.6375 6.55876 16.3212 6.77876 16.005 6.73751C15.0837 6.73751 14.2312 6.88876 13.7087 7.85126C13.5025 8.37376 13.1175 8.77251 12.6225 9.03376C12.6225 8.77251 12.6637 8.48376 12.7325 8.23626C12.3062 8.05751 12.485 7.81001 12.6912 7.56251C12.9937 7.23251 13.31 6.88876 13.6262 6.54501C13.365 6.46251 13.09 6.33876 12.8975 6.14626H14.6712V6.09126C14.135 5.99501 13.5987 5.80252 13.1175 5.54127C13.9425 5.01876 15.6612 5.29376 15.95 5.19751C15.95 5.11501 15.7162 5.08751 15.4687 5.00501C14.8912 4.85376 14.685 4.81251 14.1075 4.66126C13.53 4.51001 12.9937 4.27626 12.485 4.01501H14.8225C14.0387 3.56126 13.1587 3.24501 12.265 3.14876C11.7425 3.10751 11.385 3.10751 11.055 3.13501V3.12126C10.725 3.12126 10.3675 3.12126 9.84497 3.13501C8.95122 3.24501 8.07122 3.53376 7.25997 4.00126H9.59747C9.07497 4.29001 8.53872 4.49626 7.97497 4.64751C7.39747 4.79876 7.19122 4.84001 6.61372 4.99126C6.36622 5.07376 6.13247 5.12876 6.13247 5.18376C6.42122 5.28001 8.13997 5.03251 8.96497 5.52751C8.48372 5.78876 7.94747 5.98126 7.41122 6.07751V6.13251H9.18497C8.97872 6.32501 8.73122 6.47626 8.45622 6.53126C8.78622 6.87501 9.08872 7.20501 9.39122 7.54876C9.62497 7.79626 9.78997 8.04376 9.34997 8.22251C9.44622 8.48376 9.48747 8.75876 9.48747 9.02001C8.99247 8.77251 8.60747 8.34626 8.40122 7.83751C7.90622 6.87501 7.02622 6.72376 6.10497 6.72376C5.77497 6.76501 5.45872 6.57251 5.36247 6.24251C5.26622 6.05001 5.12872 5.66501 5.03247 5.45876C4.97747 5.81626 4.99122 6.18751 5.11497 6.51751C5.44497 7.53501 6.18747 8.37376 7.20497 8.75876C7.49372 8.85501 7.75497 8.95126 8.02997 9.10251C8.04372 9.11626 8.07122 9.11626 8.08497 9.14376C8.09872 9.14376 8.09872 9.15751 8.12622 9.15751C8.27747 9.26751 8.38747 9.41876 8.42872 9.61126L8.56622 10.2025V10.2575C8.64872 10.4088 8.64872 10.5875 8.60747 10.7388C8.52497 10.9313 8.49747 11.1375 8.49747 11.3575C8.55247 11.605 8.64872 11.8113 8.78622 12.0038C9.18497 12.54 9.74872 12.925 10.395 13.1175C10.6837 13.1725 10.8762 13.4613 10.8212 13.75C10.8075 13.9838 10.8625 14.2038 10.8075 14.4375C10.7937 14.63 10.6975 14.74 10.56 14.8225C9.87247 15.0838 9.18497 15.3588 8.49747 15.565C8.26372 15.62 8.01622 15.62 7.76872 15.5513C7.53497 15.4963 7.32872 15.3725 7.13622 15.2488C6.98497 15.1113 6.84747 14.96 6.73747 14.795C6.87497 14.7538 6.99872 14.7538 7.16372 14.7813C7.65872 14.8363 8.13997 15.0288 8.68997 14.685C8.13997 14.2313 7.21872 14.6438 6.75122 13.7913C7.38372 14.1213 7.91997 13.805 8.45622 14.0388C7.83747 13.6813 7.05372 13.5988 6.88872 12.6088C7.31497 12.9663 7.75497 13.4888 8.60747 13.2963C8.12622 12.8975 7.74122 12.2375 7.43872 11.9763C5.47247 13.09 6.20122 14.8088 6.25622 15.2075C6.25622 15.2488 6.29747 15.29 6.33872 15.3038C7.75497 16.0325 7.06747 18.1913 6.86122 18.7825C6.84747 18.8238 6.86122 18.865 6.87497 18.8925C6.88872 18.92 6.92997 18.9475 6.97122 18.9475C7.12247 18.9475 7.30122 18.9475 7.45247 18.9063C8.02997 18.7688 8.62122 18.9475 9.06122 19.3325L9.14372 19.415C8.62122 19.0713 8.00247 18.9888 7.42497 19.2225C7.08122 19.36 6.73747 19.525 6.43497 19.7588C6.37997 19.8 6.29747 19.7725 6.25622 19.7175C6.24247 19.7038 6.24247 19.6763 6.24247 19.635V18.8513C6.24247 18.59 6.22872 18.2738 5.85747 18.26C5.49997 18.26 5.49997 18.59 5.49997 18.8513V20.13C5.49997 20.2125 5.44497 20.24 5.38997 20.24C5.34872 20.24 5.30747 20.2263 5.27997 20.185C5.07372 19.8 4.75747 19.2088 4.60622 18.8513C4.59247 18.81 4.56497 18.755 4.52372 18.7138C4.44122 18.6588 4.38622 18.6725 4.22122 18.755L4.16622 18.81C4.16622 18.81 4.08372 19.0163 4.02872 18.92C3.25872 17.7925 2.51622 16.7338 1.84247 15.6063C1.70497 15.3725 1.60872 15.125 1.59497 14.8638C1.51247 14.1213 1.53997 13.3513 1.64997 12.6088C1.69122 12.2238 1.75997 11.8663 1.89747 11.495C1.93872 11.385 2.00747 11.2613 2.08997 11.165C2.13122 11.165 2.13122 11.4538 2.13122 11.5088C2.14497 11.935 2.14497 12.3338 2.17247 12.7325C2.30997 14.2588 2.51622 15.6063 3.58872 16.7475C3.79497 16.9813 4.06997 17.1463 4.35872 17.2838C4.41372 17.2975 4.49622 17.2838 4.50997 17.2013C4.52372 17.16 4.52372 17.1188 4.50997 17.105C4.17997 16.4313 3.82247 15.7713 3.54747 15.0838C3.29997 14.3825 3.12122 13.6263 2.91497 12.8975C2.90122 12.8425 2.92872 12.76 2.99747 12.7463H3.07997C3.23122 12.8013 3.43747 12.8838 3.60247 12.9388C3.65747 12.9525 3.73997 12.9388 3.75372 12.8563C3.75372 12.8425 3.76747 12.8013 3.75372 12.7738C3.56122 12.0863 2.88747 9.99626 2.88747 9.99626C2.92872 10.0375 3.32747 10.615 3.34122 10.67C3.64372 11.165 3.93247 11.7013 4.16622 12.2513C4.27622 12.54 4.37247 12.7463 4.41372 12.87C4.42747 12.9113 4.45497 12.9663 4.39997 13.0075C3.84997 13.4888 4.28997 14.3825 4.53747 14.6575C4.86747 15.0425 5.08747 15.4963 5.22497 15.9913C5.26622 16.0875 5.30747 16.2388 5.33497 16.39C5.34872 16.445 5.43122 16.4863 5.48622 16.4725C5.54122 16.4588 5.56872 16.4175 5.56872 16.3625C5.52747 15.73 5.41747 14.8638 5.21122 14.685C4.88122 14.3825 4.96372 13.3238 5.32122 13.1588C5.66497 12.98 5.74747 12.8013 5.56872 12.5125C5.52747 12.4575 5.55497 12.375 5.60997 12.3338L7.16372 11.4538C7.16372 11.4538 7.24622 11.3438 7.20497 11.275C7.19122 11.2338 7.14997 11.22 7.10872 11.22C6.57247 11.165 6.03622 11.33 5.60997 11.66C5.27997 11.8525 4.86747 11.7425 4.67497 11.4263C4.66122 11.385 4.61997 11.33 4.61997 11.2888C4.57872 11.2063 4.56497 11.1375 4.53747 11.0413C4.52372 10.9588 4.57872 10.9313 4.64747 10.9038C5.41747 10.7113 5.52747 10.67 5.56872 10.45C5.58247 10.3675 5.52747 10.3125 5.47247 10.3125H5.45872C5.19747 10.3538 4.92247 10.3125 4.67497 10.2163C4.52372 10.065 4.42747 9.87251 4.41372 9.66627C4.39997 9.61127 4.42747 9.52876 4.49622 9.51501H4.57872C4.83997 9.62501 4.92247 9.62501 5.07372 9.51501C5.12872 9.47376 5.12872 9.40501 5.08747 9.33626C5.08747 9.33626 5.00497 9.25376 4.97747 9.22626C4.44122 8.73126 3.57497 6.33876 3.60247 5.62376C3.36872 5.81627 3.21747 6.06376 3.12122 6.35251C2.52997 6.10501 2.08997 6.02251 2.15872 5.21126L2.80497 5.55501C2.80497 5.55501 2.84622 5.30751 2.47497 5.01876C1.73247 4.37251 1.63622 3.52001 1.59497 2.62626C1.55372 2.18626 1.88372 1.80126 2.32372 1.76001C2.50247 1.74626 2.66747 1.77376 2.80497 1.87001C4.26247 2.55751 6.26997 3.24501 7.93372 3.03876H7.98872C9.01997 2.80501 10.0787 2.69501 11.1237 2.68126C12.1825 2.68126 13.2275 2.79126 14.2587 3.01126H14.3137C15.9775 3.24501 17.9712 2.55751 19.4425 1.87001C19.8275 1.63626 20.3087 1.76001 20.5287 2.13126C20.625 2.28251 20.6662 2.43376 20.6387 2.61251C20.625 3.50626 20.5012 4.35876 19.7587 4.99126C19.415 5.28001 19.4562 5.52751 19.4562 5.52751L20.1025 5.18376C20.185 6.00876 19.745 6.07751 19.14 6.32501C19.0437 6.03626 18.8787 5.78876 18.6587 5.59626C18.6725 6.29751 17.8337 8.71751 17.2837 9.13001C17.2425 9.17126 17.2012 9.21251 17.1737 9.24001C17.16 9.25376 17.1325 9.29501 17.16 9.33626C17.16 9.37751 17.1737 9.39126 17.2012 9.41876C17.3525 9.52876 17.435 9.52876 17.6962 9.41876C17.7512 9.40501 17.8337 9.41876 17.8475 9.47376C17.8612 9.48751 17.8612 9.52876 17.8475 9.55626C17.8062 9.76251 17.71 9.95501 17.5862 10.1063C17.3387 10.2025 17.0637 10.2438 16.8025 10.2025C16.72 10.2025 16.6925 10.2575 16.6925 10.34C16.7337 10.5875 16.8437 10.6288 17.6137 10.8213C17.6687 10.835 17.7512 10.9038 17.7237 10.9588C17.71 11.0413 17.6687 11.1375 17.6412 11.2063C17.5312 11.5638 17.1462 11.7563 16.775 11.6463C16.72 11.6325 16.6787 11.605 16.6375 11.5913C16.2112 11.2613 15.675 11.0963 15.1387 11.1513C15.0562 11.165 15.0287 11.2338 15.0425 11.2888C15.0425 11.33 15.0562 11.3713 15.0975 11.385L16.6512 12.265C16.6512 12.265 16.7337 12.375 16.6925 12.4438C16.5137 12.7325 16.5962 12.925 16.94 13.09C17.2975 13.2825 17.3662 14.3138 17.05 14.6163C16.8437 14.8088 16.72 15.675 16.6925 16.2938C16.6925 16.3763 16.7475 16.4038 16.8025 16.4313C16.8575 16.4313 16.8987 16.39 16.9125 16.3488C16.9537 16.1975 17.0087 16.06 17.0225 15.95C17.16 15.455 17.38 14.9875 17.71 14.6163C17.9437 14.3275 18.3975 13.4338 17.8475 12.9663C17.8062 12.925 17.8062 12.87 17.8337 12.8288C17.875 12.7188 17.9712 12.4988 18.0812 12.21C18.315 11.66 18.6037 11.1375 18.9062 10.6288C18.92 10.5738 19.3325 9.99626 19.36 9.95501C19.36 9.95501 18.6862 12.0175 18.48 12.7325C18.4662 12.7875 18.4937 12.87 18.5625 12.8838H18.645C18.7962 12.8288 19.0025 12.7325 19.1675 12.6913C19.2225 12.6775 19.305 12.705 19.3187 12.7738V12.8563C19.1125 13.585 18.9337 14.3275 18.6725 15.0425C18.4112 15.73 18.04 16.4038 17.71 17.0638C17.6687 17.1188 17.71 17.2013 17.765 17.2425C17.7787 17.325 17.82 17.325 17.8475 17.2975H17.7375ZM7.57622 11.825L7.49372 11.8663C7.49372 11.8663 7.54872 11.825 7.57622 11.825ZM4.78497 2.75001C4.92247 2.79126 5.03247 2.80501 5.14247 2.84626C5.03247 2.80501 4.89497 2.76376 4.78497 2.75001ZM4.60622 2.94251C2.88747 2.80501 3.20372 4.07001 3.53372 4.81251L3.79497 5.26626C3.79497 5.26626 3.83622 5.30751 3.83622 5.32126C4.28997 6.35251 4.63372 8.49751 6.70997 9.32252C6.62747 9.28126 6.55872 9.22626 6.47622 9.17126C5.88497 8.67626 5.40372 8.04376 5.04622 7.35626C4.12497 5.50001 4.37247 4.35876 4.26247 3.89126C4.44122 3.94626 5.05997 4.08376 5.19747 4.13876C5.21122 4.12501 4.08372 3.61626 3.76747 3.45126C3.90497 3.35501 4.06997 3.30001 4.22122 3.27251C4.94997 3.19001 5.21122 3.42376 5.69247 3.50626C5.99497 3.52001 6.32497 3.50626 6.62747 3.42376L4.60622 2.92876V2.94251ZM14.4237 11.825C14.4237 11.825 14.465 11.8388 14.5062 11.8663L14.4237 11.825ZM16.83 2.84626C16.94 2.83251 17.0775 2.79126 17.1875 2.75001C17.0775 2.76376 16.9537 2.80501 16.83 2.84626ZM18.1087 5.34876C18.1087 5.34876 18.15 5.29376 18.15 5.26626L18.4112 4.81251C18.7412 4.07001 19.0575 2.79126 17.3387 2.94251L15.3175 3.43751C15.62 3.52001 15.95 3.53376 16.2525 3.52001C16.7337 3.43751 16.995 3.21751 17.7237 3.28626C17.9025 3.30001 18.0537 3.36876 18.1775 3.46501C17.8475 3.64376 16.7475 4.11126 16.7475 4.15251C16.885 4.11126 17.49 3.97376 17.6825 3.90501C17.5725 4.35876 17.82 5.52751 16.8987 7.37001C16.555 8.05751 16.06 8.69001 15.4687 9.18501C15.3862 9.24001 15.3175 9.29501 15.235 9.33626C17.325 8.51126 17.6825 6.36626 18.1087 5.36251V5.34876ZM10.9862 11.935H10.12C9.81747 11.935 9.50122 11.88 9.22622 11.7563C9.07497 11.6463 8.97872 11.4538 9.01997 11.2613C9.03372 11 9.37747 10.8213 9.37747 10.8213C9.36372 11.44 9.89997 11.5913 10.9862 11.605C12.0725 11.5913 12.6087 11.4263 12.595 10.8213C12.595 10.8213 12.9387 11.0138 12.9525 11.2613C12.9937 11.4538 12.9112 11.6463 12.7462 11.7563C12.4575 11.8663 12.155 11.935 11.8525 11.935H10.9862ZM10.9862 18.425C11.0275 19.2225 9.65247 19.2913 8.48372 18.6038C8.42872 18.3563 8.53872 17.93 8.40122 17.8338C8.20872 17.6963 7.87872 17.875 7.67247 18.0125C7.46622 18.15 7.34247 18.3975 7.13622 18.5488C7.21872 17.3113 8.45622 16.1975 10.3537 16.0875C10.56 16.0738 10.78 16.0738 10.9725 16.0738C11.165 16.0738 11.3712 16.0875 11.5912 16.0875C13.4887 16.1838 14.7125 17.3113 14.8087 18.5488C14.6162 18.3975 14.4787 18.15 14.2725 18.0125C14.0662 17.875 13.75 17.71 13.5437 17.8338C13.4062 17.93 13.5437 18.3563 13.4612 18.6038C12.3337 19.305 10.9587 19.2363 11 18.425H10.9862Z" fill="#E84E4E"/>
</svg>
