<svg width="640" height="640" viewBox="0 0 640 640" fill="none" xmlns="http://www.w3.org/2000/svg">
<path fill-rule="evenodd" clip-rule="evenodd" d="M320 640C496.731 640 640 496.731 640 320C640 143.269 496.731 0 320 0C143.269 0 0 143.269 0 320C0 496.731 143.269 640 320 640ZM351.337 438.931C401.124 410.178 423.915 377.024 426.764 322.132C406.55 389.267 376.977 421.734 351.337 438.931ZM263.534 467.358C226.238 443.515 185.699 417.599 181.357 358.314L178.236 287.327C248.372 250.32 391.764 250.32 461.899 287.327L458.643 358.314C454.305 417.458 413.839 443.348 376.573 467.192C353.247 482.116 331.176 496.237 320 517.209C308.841 496.322 286.82 482.244 263.534 467.358ZM220.291 204.096C247.287 197.355 274.419 193.503 301.415 192.265C308.306 168.56 326.5 158.776 344.339 149.183L344.554 149.067C357.397 141.034 363.535 135.99 367.624 132.63C375.37 126.265 375.763 125.942 400.446 122.791C398.004 153.194 378.198 163.787 357.849 174.655C348.624 179.47 339.399 184.423 333.43 192.127C362.19 193.09 390.95 197.217 419.709 204.096C449.961 211.387 476.279 229.959 476.279 261.463C476.279 271.643 473.566 281.274 468.953 289.665L469.225 283.062L465.155 280.998C461.492 279.072 457.558 277.284 453.76 275.771C443.992 271.781 433.818 268.204 423.643 265.315C363.954 248.256 276.047 248.256 216.357 265.315C206.182 268.204 196.008 271.643 186.24 275.771C185.746 275.985 185.25 276.2 184.752 276.415C181.423 277.856 178.031 279.323 174.845 280.998L170.775 283.062L171.047 289.665C166.434 281.274 163.721 271.643 163.721 261.463C163.721 229.959 190.039 211.662 220.291 204.096Z" fill="url(#paint0_linear_1605:9000)"/>
<defs>
<linearGradient id="paint0_linear_1605:9000" x1="528.797" y1="23.0081" x2="107.985" y2="605.008" gradientUnits="userSpaceOnUse">
<stop stop-color="#F8B900"/>
<stop offset="1" stop-color="#E67508"/>
</linearGradient>
</defs>
</svg>
