<svg width="22" height="22" viewBox="0 0 22 22" fill="none" xmlns="http://www.w3.org/2000/svg">
<g clip-path="url(#clip0_610_4346)">
<path d="M11 19.66C15.7828 19.66 19.66 15.7828 19.66 11C19.66 6.21721 15.7828 2.34 11 2.34C6.21721 2.34 2.34 6.21721 2.34 11C2.34 15.7828 6.21721 19.66 11 19.66Z" fill="#E84E4E"/>
<path d="M11 16.95C14.2861 16.95 16.95 14.2861 16.95 11C16.95 7.71389 14.2861 5.04999 11 5.04999C7.71389 5.04999 5.04999 7.71389 5.04999 11C5.04999 14.2861 7.71389 16.95 11 16.95Z" fill="#1E82FF"/>
<path d="M11 16.95C14.2861 16.95 16.95 14.2861 16.95 11C16.95 7.71389 14.2861 5.04999 11 5.04999C7.71389 5.04999 5.04999 7.71389 5.04999 11C5.04999 14.2861 7.71389 16.95 11 16.95Z" stroke="#1E65C6" stroke-width="0.5" stroke-miterlimit="10"/>
<path d="M11 19.75C15.7828 19.75 19.66 15.8728 19.66 11.09C19.66 6.30721 15.7828 2.42999 11 2.42999C6.21721 2.42999 2.34 6.30721 2.34 11.09C2.34 15.8728 6.21721 19.75 11 19.75Z" stroke="#D33333" stroke-width="0.7" stroke-miterlimit="10"/>
<path d="M15.79 5.01C16.4307 5.01 16.95 4.49065 16.95 3.85C16.95 3.20935 16.4307 2.69 15.79 2.69C15.1494 2.69 14.63 3.20935 14.63 3.85C14.63 4.49065 15.1494 5.01 15.79 5.01Z" fill="#FDB61B"/>
<path d="M15.79 5.01C16.4307 5.01 16.95 4.49065 16.95 3.85C16.95 3.20935 16.4307 2.69 15.79 2.69C15.1494 2.69 14.63 3.20935 14.63 3.85C14.63 4.49065 15.1494 5.01 15.79 5.01Z" stroke="#FD7C1B" stroke-width="0.34" stroke-miterlimit="10"/>
<path d="M6.36999 5.01C7.01064 5.01 7.52999 4.49065 7.52999 3.85C7.52999 3.20935 7.01064 2.69 6.36999 2.69C5.72934 2.69 5.20999 3.20935 5.20999 3.85C5.20999 4.49065 5.72934 5.01 6.36999 5.01Z" fill="#FDB61B"/>
<path d="M6.36999 5.01C7.01064 5.01 7.52999 4.49065 7.52999 3.85C7.52999 3.20935 7.01064 2.69 6.36999 2.69C5.72934 2.69 5.20999 3.20935 5.20999 3.85C5.20999 4.49065 5.72934 5.01 6.36999 5.01Z" stroke="#FD7C1B" stroke-width="0.34" stroke-miterlimit="10"/>
<path d="M15.78 19.55C16.4206 19.55 16.94 19.0307 16.94 18.39C16.94 17.7494 16.4206 17.23 15.78 17.23C15.1393 17.23 14.62 17.7494 14.62 18.39C14.62 19.0307 15.1393 19.55 15.78 19.55Z" fill="#FDB61B"/>
<path d="M15.78 19.55C16.4206 19.55 16.94 19.0307 16.94 18.39C16.94 17.7494 16.4206 17.23 15.78 17.23C15.1393 17.23 14.62 17.7494 14.62 18.39C14.62 19.0307 15.1393 19.55 15.78 19.55Z" stroke="#FD7C1B" stroke-width="0.34" stroke-miterlimit="10"/>
<path d="M6.35 19.55C6.99065 19.55 7.51 19.0307 7.51 18.39C7.51 17.7494 6.99065 17.23 6.35 17.23C5.70935 17.23 5.19 17.7494 5.19 18.39C5.19 19.0307 5.70935 19.55 6.35 19.55Z" fill="#FDB61B"/>
<path d="M6.35 19.55C6.99065 19.55 7.51 19.0307 7.51 18.39C7.51 17.7494 6.99065 17.23 6.35 17.23C5.70935 17.23 5.19 17.7494 5.19 18.39C5.19 19.0307 5.70935 19.55 6.35 19.55Z" stroke="#FD7C1B" stroke-width="0.34" stroke-miterlimit="10"/>
<path d="M11 3.70001C11.7511 3.70001 12.36 3.09112 12.36 2.34001C12.36 1.5889 11.7511 0.980011 11 0.980011C10.2489 0.980011 9.64001 1.5889 9.64001 2.34001C9.64001 3.09112 10.2489 3.70001 11 3.70001Z" fill="#FDB61B"/>
<path d="M11 3.70001C11.7511 3.70001 12.36 3.09112 12.36 2.34001C12.36 1.5889 11.7511 0.980011 11 0.980011C10.2489 0.980011 9.64001 1.5889 9.64001 2.34001C9.64001 3.09112 10.2489 3.70001 11 3.70001Z" stroke="#FD7C1B" stroke-width="0.4" stroke-miterlimit="10"/>
<path d="M11 21.1C11.7511 21.1 12.36 20.4911 12.36 19.74C12.36 18.9889 11.7511 18.38 11 18.38C10.2489 18.38 9.64001 18.9889 9.64001 19.74C9.64001 20.4911 10.2489 21.1 11 21.1Z" fill="#FDB61B"/>
<path d="M11 21.1C11.7511 21.1 12.36 20.4911 12.36 19.74C12.36 18.9889 11.7511 18.38 11 18.38C10.2489 18.38 9.64001 18.9889 9.64001 19.74C9.64001 20.4911 10.2489 21.1 11 21.1Z" stroke="#FD7C1B" stroke-width="0.4" stroke-miterlimit="10"/>
<path d="M20.35 7.92001H1.77001C1.07413 7.92001 0.51001 8.48413 0.51001 9.18001V12.75C0.51001 13.4459 1.07413 14.01 1.77001 14.01H20.35C21.0459 14.01 21.61 13.4459 21.61 12.75V9.18001C21.61 8.48413 21.0459 7.92001 20.35 7.92001Z" fill="white"/>
<path d="M20.35 7.92001H1.77001C1.07413 7.92001 0.51001 8.48413 0.51001 9.18001V12.75C0.51001 13.4459 1.07413 14.01 1.77001 14.01H20.35C21.0459 14.01 21.61 13.4459 21.61 12.75V9.18001C21.61 8.48413 21.0459 7.92001 20.35 7.92001Z" stroke="#1E65C6" stroke-width="0.5" stroke-miterlimit="10"/>
<path d="M3.48001 9.29001V12.28C3.48001 12.52 3.25001 12.71 2.96001 12.71H1.62001C1.33001 12.71 1.10001 12.52 1.10001 12.28C1.10001 12.28 1.10001 11.6 1.10001 11.36H1.82001V11.99H2.76001V10.01H2.29001V9.29001H3.48001Z" fill="#1E65C6"/>
<path d="M6.39001 9.65001V12.72H5.67001V11.37H4.73001V12.72H4.01001V9.65001C4.01001 9.45001 4.17001 9.29001 4.37001 9.29001H6.03001C6.13001 9.29001 6.22001 9.33001 6.29001 9.40001C6.36001 9.47001 6.40001 9.56001 6.40001 9.66001L6.39001 9.65001ZM5.67001 10.01H4.73001V10.64H5.67001V10.01Z" fill="#1E65C6"/>
<path d="M9.30999 11.36V12.28C9.30999 12.52 9.07999 12.71 8.78999 12.71H7.44999C7.15999 12.71 6.92999 12.52 6.92999 12.28V9.64C6.92999 9.44 7.08999 9.28 7.28999 9.28H8.94999C9.04999 9.28 9.13999 9.32 9.20999 9.39C9.27999 9.46 9.31999 9.55 9.31999 9.65C9.31999 9.65 9.31999 10.62 9.31999 10.64H8.59999V10.01H7.65999V11.99H8.59999V11.36H9.31999H9.30999Z" fill="#1E65C6"/>
<path d="M11 11L12.15 12.71H11.28L10.57 11.65V12.71H9.85001V9.28H10.57V10.34L11.28 9.28H12.15L11 10.99V11Z" fill="#1E65C6"/>
<path d="M15.07 9.65V10.93C15.07 10.93 15.07 10.98 15.07 11C15.03 11.21 14.82 11.36 14.56 11.36H13.42V12.71H12.7V9.28H14.72C14.82 9.28 14.91 9.32 14.98 9.39C15.05 9.46 15.09 9.55 15.09 9.65H15.07ZM14.35 10.01H13.41V10.64H14.35V10.01Z" fill="#1E65C6"/>
<path d="M17.99 10.46V12.35C17.99 12.55 17.83 12.71 17.63 12.71H15.97C15.87 12.71 15.78 12.67 15.71 12.6C15.64 12.53 15.6 12.44 15.6 12.35C15.6 12.35 15.6 12.35 15.6 12.33C15.6 12.23 15.6 11.77 15.6 11.52V9.64C15.6 9.44 15.76 9.28 15.96 9.28H17.62C17.72 9.28 17.81 9.32 17.88 9.39C17.95 9.46 17.99 9.55 17.99 9.65V9.67C17.99 9.77 17.99 10.21 17.99 10.46ZM17.27 10.01H16.33V11.99H17.27V10.01Z" fill="#1E65C6"/>
<path d="M20.9 9.29001V10.01H20.07V12.72H19.35V10.01H18.52V9.29001H20.9Z" fill="#1E65C6"/>
</g>
<defs>
<clipPath id="clip0_610_4346">
<rect width="22" height="22" fill="white"/>
</clipPath>
</defs>
</svg>
