<svg xmlns="http://www.w3.org/2000/svg" width="25" height="25" viewBox="0 0 25 25">
    <g fill="none" fill-rule="evenodd">
        <path fill="#FDB61B" d="M6.16 7.22c1.177 0 2.213-.301 3.068-.686C8.36 8.067 7.84 9.84 7.736 11.67c-3.473.35-6.196 3.081-6.196 6.428 0 3.583 3.11 6.546 6.931 6.546 1.177 0 2.305-.311 3.317-.831-1.57-1.443-2.547-3.497-2.547-5.715s.978-4.224 2.547-5.666c-.78-.401-1.628-.673-2.514-.78.335-5.102 4.446-9.311 9.746-10.08-1.35 1.777-2.078 3.897-2.078 6.123v3.978c-3.456.365-6.16 3.09-6.16 6.425 0 3.583 3.108 6.546 6.93 6.546 3.822 0 6.93-2.963 6.93-6.546 0-3.336-2.704-6.06-6.16-6.425V7.694c0-2.44 1.014-4.736 2.855-6.462L22.65 0h-1.859c-3.617 0-6.895 1.383-9.267 3.613-.622-.56-2.619-2.17-5.364-2.17-3.25 0-5.472 2.27-5.58 2.367L0 4.332l.581.521c.108.097 2.33 2.367 5.58 2.367zm11.552 8.711c-1.274 0-2.31.972-2.31 2.166h-1.54c0-1.99 1.727-3.61 3.85-3.61v1.444zm-9.241 0c-1.274 0-2.31.972-2.31 2.166H4.62c0-1.99 1.727-3.61 3.85-3.61v1.444z"/>
        <path fill="#FDB61B" d="M6.16 7.22c1.177 0 2.213-.301 3.068-.686C8.36 8.067 7.84 9.84 7.736 11.67c0 .003 1.538-.017 1.538-.017.335-5.103 4.446-9.312 9.746-10.08-1.35 1.776-2.078 3.896-2.078 6.122v3.978s1.54-.003 1.54 0V7.694c0-2.44 1.014-4.736 2.855-6.462L22.65 0h-1.859c-3.617 0-6.895 1.383-9.267 3.613-.622-.56-2.619-2.17-5.364-2.17-3.25 0-5.472 2.27-5.58 2.367L0 4.332l.581.521c.108.097 2.33 2.367 5.58 2.367z"/>
    </g>
</svg>
