<svg width="22" height="22" viewBox="0 0 22 22" fill="none" xmlns="http://www.w3.org/2000/svg">
<path d="M5.81995 19.19V20.22C5.81995 20.94 8.03995 21.52 10.7699 21.52C13.5099 21.52 15.7199 20.94 15.7199 20.22V19.19H5.81995Z" fill="#612121"/>
<path d="M15.73 19.19C15.73 19.91 13.51 20.49 10.78 20.49C8.04996 20.49 5.82996 19.91 5.82996 19.19C5.82996 18.47 8.04996 17.55 10.78 17.55C13.51 17.55 15.73 18.47 15.73 19.19Z" fill="#875151"/>
<path d="M6.33997 16.22V18.89C6.33997 19.53 8.32997 20.06 10.78 20.06C13.23 20.06 15.22 19.54 15.22 18.89V16.22H6.33997Z" fill="#612121"/>
<path d="M10.77 17.39C13.2221 17.39 15.21 16.8662 15.21 16.22C15.21 15.5738 13.2221 15.05 10.77 15.05C8.31781 15.05 6.32996 15.5738 6.32996 16.22C6.32996 16.8662 8.31781 17.39 10.77 17.39Z" fill="#875151"/>
<path d="M11.83 13.29C11.83 14.87 12.61 15.54 13.03 15.79C13.19 15.88 13.29 16.06 13.29 16.24C13.29 16.55 12.16 16.83 10.77 16.83C9.38 16.83 8.25 16.55 8.25 16.24C8.25 16.05 8.35 15.88 8.51 15.79C8.93 15.54 9.71 14.87 9.71 13.29H11.83Z" fill="#FDB61B"/>
<path d="M11.83 13.29C11.83 14.87 12.61 15.54 13.03 15.79C13.19 15.88 13.29 16.06 13.29 16.24C13.29 16.55 12.16 16.83 10.77 16.83C9.38 16.83 8.25 16.55 8.25 16.24C8.25 16.05 8.35 15.88 8.51 15.79C8.93 15.54 9.71 14.87 9.71 13.29H11.83Z" stroke="#F38235" stroke-width="0.5" stroke-miterlimit="10"/>
<path d="M13.9099 17.99V18.9C13.9099 19 13.8399 19.09 13.7399 19.12C12.9499 19.31 11.9099 19.42 10.7699 19.42C9.62994 19.42 8.58994 19.31 7.79994 19.12C7.69994 19.1 7.62994 19.01 7.62994 18.9V17.99C7.62994 17.85 7.75994 17.74 7.89994 17.77C8.66994 17.94 9.67994 18.05 10.7699 18.05C11.8599 18.05 12.8699 17.95 13.6399 17.77C13.7799 17.74 13.9099 17.84 13.9099 17.99Z" fill="#FDB61B"/>
<path d="M14.11 9.83002C17.43 9.83002 18.69 7.34002 19.01 5.69002C19.15 4.98002 19.3 4.28002 18.81 4.14002C18.21 3.96002 18.14 4.86002 16.8 4.86002V3.42002C18.05 3.42002 18.22 2.43002 19.11 2.43002C19.99 2.43002 20.36 3.25002 20.36 4.65002C20.36 8.28002 17.56 11.61 14.11 11.61V9.83002Z" fill="#FDB61B"/>
<path d="M14.11 9.83002C17.43 9.83002 18.69 7.34002 19.01 5.69002C19.15 4.98002 19.3 4.28002 18.81 4.14002C18.21 3.96002 18.14 4.86002 16.8 4.86002V3.42002C18.05 3.42002 18.22 2.43002 19.11 2.43002C19.99 2.43002 20.36 3.25002 20.36 4.65002C20.36 8.28002 17.56 11.61 14.11 11.61V9.83002Z" stroke="#F38235" stroke-width="0.5" stroke-miterlimit="10"/>
<path d="M7.65997 9.83002C4.33997 9.83002 3.07997 7.34002 2.75997 5.69002C2.61997 4.98002 2.46997 4.28002 2.95997 4.14002C3.55997 3.96002 3.62997 4.86002 4.96997 4.86002V3.42002C3.71997 3.42002 3.54997 2.43002 2.65997 2.43002C1.77997 2.43002 1.40997 3.25002 1.40997 4.65002C1.40997 8.28002 4.20997 11.61 7.65997 11.61V9.83002Z" fill="#FDB61B"/>
<path d="M7.65997 9.83002C4.33997 9.83002 3.07997 7.34002 2.75997 5.69002C2.61997 4.98002 2.46997 4.28002 2.95997 4.14002C3.55997 3.96002 3.62997 4.86002 4.96997 4.86002V3.42002C3.71997 3.42002 3.54997 2.43002 2.65997 2.43002C1.77997 2.43002 1.40997 3.25002 1.40997 4.65002C1.40997 8.28002 4.20997 11.61 7.65997 11.61V9.83002Z" stroke="#F38235" stroke-width="0.5" stroke-miterlimit="10"/>
<path d="M17.01 1.94V4.16C17.01 7.24 16.31 9.58 15.18 11.15C14.06 12.72 12.5 13.52 10.77 13.52C8.24998 13.52 6.07998 11.91 5.10998 8.55C4.73998 7.32 4.53998 5.86 4.53998 4.16V1.94H17.01Z" fill="#FDB61B"/>
<path d="M10.92 5.08001C10.89 5.02001 10.84 4.98001 10.77 4.98001C10.7 4.98001 10.65 5.02001 10.62 5.08001C10.38 5.58001 10.12 6.08001 9.84998 6.58001C9.28998 6.67001 8.71998 6.77001 8.15998 6.88001C8.08998 6.89001 8.02998 6.94001 8.00998 7.00001C7.98998 7.06001 8.00998 7.12001 8.04998 7.16001C8.43998 7.49001 8.85998 7.86001 9.27998 8.24001C9.19998 8.76001 9.14998 9.27001 9.13998 9.78001C9.13998 9.85001 9.17998 9.91001 9.22998 9.96001C9.27998 10.01 9.35998 10.02 9.40998 10C9.82998 9.81001 10.28 9.57001 10.76 9.32001C11.24 9.58001 11.7 9.81001 12.11 10C12.11 10 12.16 10.01 12.19 10C12.22 10 12.26 9.98001 12.29 9.95001C12.34 9.90001 12.39 9.84001 12.38 9.77001C12.37 9.27001 12.32 8.75001 12.24 8.23001C12.66 7.85001 13.08 7.48001 13.47 7.15001C13.52 7.11001 13.54 7.04001 13.51 6.99001C13.49 6.93001 13.42 6.88001 13.36 6.87001C12.79 6.77001 12.23 6.67001 11.67 6.57001C11.4 6.07001 11.14 5.57001 10.9 5.07001L10.92 5.08001Z" fill="white"/>
<g style="mix-blend-mode:multiply" opacity="0.3">
<path d="M17.01 1.93002V4.16002C17.01 7.22002 16.31 9.57002 15.19 11.14C14.05 12.71 12.49 13.52 10.77 13.52C8.69998 13.52 6.84998 12.44 5.72998 10.19C6.46998 10.44 7.23998 10.58 8.02998 10.58C12.19 10.58 15.69 6.92002 16.71 1.94002H17.01V1.93002Z" fill="#FDB61B"/>
</g>
<path opacity="0.2" d="M13.33 1.94C12.46 5.69 9.11998 8.49 5.10998 8.55C4.73998 7.32 4.53998 5.86 4.53998 4.16V1.94H13.33Z" fill="url(#paint0_linear_610_3412)"/>
<path d="M4.53998 1.94V4.16C4.53998 10.52 7.32998 13.52 10.78 13.52C14.23 13.52 17.02 10.31 17.02 4.16V1.94" stroke="#F38235" stroke-width="0.7" stroke-miterlimit="10"/>
<path d="M17.38 1.93001C17.38 2.19001 15.96 2.43001 13.88 2.54001C12.96 2.60001 11.9 2.63001 10.77 2.63001C7.12998 2.63001 4.16998 2.31001 4.16998 1.93001C4.16998 1.55001 7.12998 1.23001 10.77 1.23001C11.92 1.23001 12.99 1.26001 13.93 1.31001C15.99 1.43001 17.38 1.66001 17.38 1.93001Z" fill="#612121"/>
<defs>
<linearGradient id="paint0_linear_610_3412" x1="3.83998" y1="-0.389998" x2="16.54" y2="12.91" gradientUnits="userSpaceOnUse">
<stop offset="0.53" stop-color="white"/>
<stop offset="1" stop-color="white" stop-opacity="0"/>
</linearGradient>
</defs>
</svg>
